solid OpenSCAD_Model
  facet normal 0 0 -1
    outer loop
      vertex 1.90661 -6.58065 0
      vertex 1.42533 -4.98961 0
      vertex 2.52779 -6.29083 0
    endloop
  endfacet
  facet normal 0 0 -1
    outer loop
      vertex 1.3302 -6.76992 0
      vertex 1.09516 -5.09607 0
      vertex 1.90661 -6.58065 0
    endloop
  endfacet
  facet normal 0 0 -1
    outer loop
      vertex 1.94018 -4.74119 0
      vertex 2.82439 -6.13705 0
      vertex 2.52779 -6.29083 0
    endloop
  endfacet
  facet normal 0 0 -1
    outer loop
      vertex 3.17695 -3.75936 0
      vertex 4.60958 -4.59924 0
      vertex 3.65822 -5.5515 0
    endloop
  endfacet
  facet normal 0 0 -1
    outer loop
      vertex 2.82439 -6.13705 0
      vertex 2.58934 -4.30351 0
      vertex 3.65822 -5.5515 0
    endloop
  endfacet
  facet normal 0 0 -1
    outer loop
      vertex 4.11151 -2.41673 0
      vertex 5.80717 -2.50545 0
      vertex 5.37066 -3.46362 0
    endloop
  endfacet
  facet normal 0 0 -1
    outer loop
      vertex 4.70471 0.156147 0
      vertex 6.18771 0.783101 0
      vertex 6.1989 0.0496831 0
    endloop
  endfacet
  facet normal -0 0 -1
    outer loop
      vertex 6.16532 -0.837516 0
      vertex 4.63196 -0.873004 0
      vertex 4.70471 -0.281538 0
    endloop
  endfacet
  facet normal -0 0 -1
    outer loop
      vertex 6.18771 0.783101 0
      vertex 4.70471 0.156147 0
      vertex 4.62637 0.877736 0
    endloop
  endfacet
  facet normal 0 0 -1
    outer loop
      vertex 4.05555 2.62847 0
      vertex 5.59451 3.06025 0
      vertex 4.40811 1.78859 0
    endloop
  endfacet
  facet normal 0 -0 -1
    outer loop
      vertex 5.05168 4.10123 0
      vertex 5.27553 3.7286 0
      vertex 4.05555 2.62847 0
    endloop
  endfacet
  facet normal 0 0 -1
    outer loop
      vertex 3.57987 3.38555 0
      vertex 5.05168 4.10123 0
      vertex 4.05555 2.62847 0
    endloop
  endfacet
  facet normal 0 -0 -1
    outer loop
      vertex 3.45676 5.79873 0
      vertex 4.22903 5.1008 0
      vertex 3.00346 4.04208 0
    endloop
  endfacet
  facet normal 0 0 -1
    outer loop
      vertex 2.32073 4.58623 0
      vertex 3.45676 5.79873 0
      vertex 3.00346 4.04208 0
    endloop
  endfacet
  facet normal 0 0 -1
    outer loop
      vertex 0.524343 5.31965 0
      vertex -0.0632596 5.37879 0
      vertex 0.289302 7.02898 0
    endloop
  endfacet
  facet normal 0 0 -1
    outer loop
      vertex -1.57424 5.19544 0
      vertex -1.66378 6.94618 0
      vertex -1.39516 6.99941 0
    endloop
  endfacet
  facet normal 0 0 -1
    outer loop
      vertex -0.0632596 5.37879 0
      vertex -0.13601 7.04673 0
      vertex 0.289302 7.02898 0
    endloop
  endfacet
  facet normal 0 0 -1
    outer loop
      vertex -4.11492 3.43878 0
      vertex -5.40764 4.4147 0
      vertex -5.04389 4.88787 0
    endloop
  endfacet
  facet normal 0 0 -1
    outer loop
      vertex -4.47307 2.92421 0
      vertex -5.9113 3.58665 0
      vertex -5.40764 4.4147 0
    endloop
  endfacet
  facet normal 0 0 -1
    outer loop
      vertex -5.04389 4.88787 0
      vertex -3.57208 4.03616 0
      vertex -4.11492 3.43878 0
    endloop
  endfacet
  facet normal 0 0 -1
    outer loop
      vertex -2.9565 4.533 0
      vertex -4.45069 5.4616 0
      vertex -3.51053 6.1477 0
    endloop
  endfacet
  facet normal -0 0 -1
    outer loop
      vertex -2.29055 4.92336 0
      vertex -2.9565 4.533 0
      vertex -3.51053 6.1477 0
    endloop
  endfacet
  facet normal 0 0 -1
    outer loop
      vertex -4.7361 2.45104 0
      vertex -5.06068 1.46329 0
      vertex -6.40936 2.42738 0
    endloop
  endfacet
  facet normal 0 0 -1
    outer loop
      vertex -1.57424 5.19544 0
      vertex -2.46403 6.6741 0
      vertex -1.66378 6.94618 0
    endloop
  endfacet
  facet normal 0 0 -1
    outer loop
      vertex -6.40936 2.42738 0
      vertex -5.9113 3.58665 0
      vertex -4.7361 2.45104 0
    endloop
  endfacet
  facet normal 0 0 -1
    outer loop
      vertex -6.68917 -1.21605 0
      vertex -6.8011 0.00828052 0
      vertex -5.22297 0.0496831 0
    endloop
  endfacet
  facet normal 0 0 -1
    outer loop
      vertex 4.4305 -1.65965 0
      vertex 5.94707 -2.05594 0
      vertex 5.80717 -2.50545 0
    endloop
  endfacet
  facet normal 0 0 -1
    outer loop
      vertex -1.95478 -6.74035 0
      vertex -1.7701 -5.05467 0
      vertex -1.40075 -5.16705 0
    endloop
  endfacet
  facet normal -0 0 -1
    outer loop
      vertex -2.41926 -4.74711 0
      vertex -3.61685 -5.96553 0
      vertex -3.2475 -4.17338 0
    endloop
  endfacet
  facet normal -0 0 -1
    outer loop
      vertex -1.7701 -5.05467 0
      vertex -2.67669 -6.46827 0
      vertex -2.41926 -4.74711 0
    endloop
  endfacet
  facet normal 0 -0 -1
    outer loop
      vertex 0.608286 -5.17888 0
      vertex 0.709018 -6.8823 0
      vertex 0.154993 -6.93553 0
    endloop
  endfacet
  facet normal -0 0 -1
    outer loop
      vertex -0.936269 -5.22028 0
      vertex -1.30562 -6.89413 0
      vertex -1.40075 -5.16705 0
    endloop
  endfacet
  facet normal 0 0 -1
    outer loop
      vertex -0.544534 -6.95327 0
      vertex -0.169588 -5.23802 0
      vertex 0.154993 -6.93553 0
    endloop
  endfacet
  facet normal 0 0 -1
    outer loop
      vertex -1.30562 -6.89413 0
      vertex -0.936269 -5.22028 0
      vertex -0.941865 -6.94144 0
    endloop
  endfacet
  facet normal 0 0 -1
    outer loop
      vertex -0.941865 -6.94144 0
      vertex -0.936269 -5.22028 0
      vertex -0.544534 -6.95327 0
    endloop
  endfacet
  facet normal 0 0 -1
    outer loop
      vertex -0.544534 -6.95327 0
      vertex -0.936269 -5.22028 0
      vertex -0.169588 -5.23802 0
    endloop
  endfacet
  facet normal 0 0 -1
    outer loop
      vertex -1.95478 -6.74035 0
      vertex -1.40075 -5.16705 0
      vertex -1.30562 -6.89413 0
    endloop
  endfacet
  facet normal 0 0 -1
    outer loop
      vertex -1.95478 -6.74035 0
      vertex -2.67669 -6.46827 0
      vertex -1.7701 -5.05467 0
    endloop
  endfacet
  facet normal 0 0 -1
    outer loop
      vertex 4.11151 -2.41673 0
      vertex 4.4305 -1.65965 0
      vertex 5.80717 -2.50545 0
    endloop
  endfacet
  facet normal 0 0 -1
    outer loop
      vertex -2.67669 -6.46827 0
      vertex -3.61685 -5.96553 0
      vertex -2.41926 -4.74711 0
    endloop
  endfacet
  facet normal 0 0 -1
    outer loop
      vertex -4.45629 -5.34449 0
      vertex -4.98793 -4.82991 0
      vertex -3.2475 -4.17338 0
    endloop
  endfacet
  facet normal 0 0 -1
    outer loop
      vertex -4.45629 -5.34449 0
      vertex -3.2475 -4.17338 0
      vertex -3.61685 -5.96553 0
    endloop
  endfacet
  facet normal 0 0 -1
    outer loop
      vertex -4.98793 -4.82991 0
      vertex -5.34049 -4.38631 0
      vertex -3.9862 -3.44588 0
    endloop
  endfacet
  facet normal 0 0 -1
    outer loop
      vertex -4.98793 -4.82991 0
      vertex -3.9862 -3.44588 0
      vertex -3.2475 -4.17338 0
    endloop
  endfacet
  facet normal 0 0 -1
    outer loop
      vertex -5.34049 -4.38631 0
      vertex -5.86093 -3.55826 0
      vertex -4.45629 -2.82484 0
    endloop
  endfacet
  facet normal 0 0 -1
    outer loop
      vertex -5.34049 -4.38631 0
      vertex -4.45629 -2.82484 0
      vertex -3.9862 -3.44588 0
    endloop
  endfacet
  facet normal 0 0 -1
    outer loop
      vertex -5.86093 -3.55826 0
      vertex -6.37579 -2.41082 0
      vertex -4.74729 -2.31618 0
    endloop
  endfacet
  facet normal 0 0 -1
    outer loop
      vertex -5.86093 -3.55826 0
      vertex -4.74729 -2.31618 0
      vertex -4.45629 -2.82484 0
    endloop
  endfacet
  facet normal 0 0 -1
    outer loop
      vertex -6.37579 -2.41082 0
      vertex -5.06627 -1.35209 0
      vertex -4.74729 -2.31618 0
    endloop
  endfacet
  facet normal 0 0 -1
    outer loop
      vertex -5.06627 -1.35209 0
      vertex -6.68917 -1.21605 0
      vertex -5.22297 0.0496831 0
    endloop
  endfacet
  facet normal 0 0 -1
    outer loop
      vertex -6.37579 -2.41082 0
      vertex -6.68917 -1.21605 0
      vertex -5.06627 -1.35209 0
    endloop
  endfacet
  facet normal 0 0 -1
    outer loop
      vertex -5.22297 0.0496831 0
      vertex -6.70596 1.2267 0
      vertex -5.06068 1.46329 0
    endloop
  endfacet
  facet normal 0 0 -1
    outer loop
      vertex -6.8011 0.00828052 0
      vertex -6.70596 1.2267 0
      vertex -5.22297 0.0496831 0
    endloop
  endfacet
  facet normal -0 0 -1
    outer loop
      vertex -5.06068 1.46329 0
      vertex -6.70596 1.2267 0
      vertex -6.40936 2.42738 0
    endloop
  endfacet
  facet normal 0 0 -1
    outer loop
      vertex -4.7361 2.45104 0
      vertex -5.9113 3.58665 0
      vertex -4.47307 2.92421 0
    endloop
  endfacet
  facet normal 0 0 -1
    outer loop
      vertex -4.47307 2.92421 0
      vertex -5.40764 4.4147 0
      vertex -4.11492 3.43878 0
    endloop
  endfacet
  facet normal 0 0 -1
    outer loop
      vertex -5.04389 4.88787 0
      vertex -4.45069 5.4616 0
      vertex -3.57208 4.03616 0
    endloop
  endfacet
  facet normal 0 0 -1
    outer loop
      vertex -3.57208 4.03616 0
      vertex -4.45069 5.4616 0
      vertex -2.9565 4.533 0
    endloop
  endfacet
  facet normal 0 0 -1
    outer loop
      vertex -2.46403 6.6741 0
      vertex -1.57424 5.19544 0
      vertex -2.29055 4.92336 0
    endloop
  endfacet
  facet normal 0 -0 -1
    outer loop
      vertex -2.46403 6.6741 0
      vertex -2.29055 4.92336 0
      vertex -3.51053 6.1477 0
    endloop
  endfacet
  facet normal -0 0 -1
    outer loop
      vertex -0.829941 5.34922 0
      vertex -1.57424 5.19544 0
      vertex -1.39516 6.99941 0
    endloop
  endfacet
  facet normal 0 -0 -1
    outer loop
      vertex -0.824344 7.04081 0
      vertex -0.0632596 5.37879 0
      vertex -0.829941 5.34922 0
    endloop
  endfacet
  facet normal 0 0 -1
    outer loop
      vertex -0.824344 7.04081 0
      vertex -0.829941 5.34922 0
      vertex -1.39516 6.99941 0
    endloop
  endfacet
  facet normal 0 0 -1
    outer loop
      vertex -0.824344 7.04081 0
      vertex -0.13601 7.04673 0
      vertex -0.0632596 5.37879 0
    endloop
  endfacet
  facet normal -0 0 -1
    outer loop
      vertex 1.24625 6.8752 0
      vertex 0.524343 5.31965 0
      vertex 0.289302 7.02898 0
    endloop
  endfacet
  facet normal 0 -0 -1
    outer loop
      vertex 1.24625 6.8752 0
      vertex 1.55405 5.00617 0
      vertex 0.92727 5.22501 0
    endloop
  endfacet
  facet normal 0 0 -1
    outer loop
      vertex 1.24625 6.8752 0
      vertex 0.92727 5.22501 0
      vertex 0.524343 5.31965 0
    endloop
  endfacet
  facet normal 0 0 -1
    outer loop
      vertex 2.39907 6.46709 0
      vertex 2.32073 4.58623 0
      vertex 1.55405 5.00617 0
    endloop
  endfacet
  facet normal -0 0 -1
    outer loop
      vertex 2.39907 6.46709 0
      vertex 1.55405 5.00617 0
      vertex 1.24625 6.8752 0
    endloop
  endfacet
  facet normal 0 -0 -1
    outer loop
      vertex 2.39907 6.46709 0
      vertex 3.45676 5.79873 0
      vertex 2.32073 4.58623 0
    endloop
  endfacet
  facet normal -0 0 -1
    outer loop
      vertex 4.79425 4.4561 0
      vertex 3.57987 3.38555 0
      vertex 4.22903 5.1008 0
    endloop
  endfacet
  facet normal 0 0 -1
    outer loop
      vertex 3.57987 3.38555 0
      vertex 3.00346 4.04208 0
      vertex 4.22903 5.1008 0
    endloop
  endfacet
  facet normal 0 -0 -1
    outer loop
      vertex 4.79425 4.4561 0
      vertex 5.05168 4.10123 0
      vertex 3.57987 3.38555 0
    endloop
  endfacet
  facet normal 0 -0 -1
    outer loop
      vertex 5.27553 3.7286 0
      vertex 5.59451 3.06025 0
      vertex 4.05555 2.62847 0
    endloop
  endfacet
  facet normal 0 -0 -1
    outer loop
      vertex 5.86313 2.3978 0
      vertex 6.08138 1.61115 0
      vertex 4.40811 1.78859 0
    endloop
  endfacet
  facet normal -0 0 -1
    outer loop
      vertex 5.86313 2.3978 0
      vertex 4.40811 1.78859 0
      vertex 5.59451 3.06025 0
    endloop
  endfacet
  facet normal 0 -0 -1
    outer loop
      vertex 6.08138 1.61115 0
      vertex 6.18771 0.783101 0
      vertex 4.62637 0.877736 0
    endloop
  endfacet
  facet normal -0 0 -1
    outer loop
      vertex 6.08138 1.61115 0
      vertex 4.62637 0.877736 0
      vertex 4.40811 1.78859 0
    endloop
  endfacet
  facet normal 0 0 -1
    outer loop
      vertex 6.16532 -0.837516 0
      vertex 4.70471 -0.281538 0
      vertex 6.1989 0.0496831 0
    endloop
  endfacet
  facet normal 0 0 -1
    outer loop
      vertex 4.70471 -0.281538 0
      vertex 4.70471 0.156147 0
      vertex 6.1989 0.0496831 0
    endloop
  endfacet
  facet normal 0 0 -1
    outer loop
      vertex 6.04221 -1.71289 0
      vertex 4.63196 -0.873004 0
      vertex 6.12055 -1.30477 0
    endloop
  endfacet
  facet normal 0 0 -1
    outer loop
      vertex 4.63196 -0.873004 0
      vertex 6.16532 -0.837516 0
      vertex 6.12055 -1.30477 0
    endloop
  endfacet
  facet normal 0 0 -1
    outer loop
      vertex 6.04221 -1.71289 0
      vertex 4.4305 -1.65965 0
      vertex 4.63196 -0.873004 0
    endloop
  endfacet
  facet normal -0 0 -1
    outer loop
      vertex 6.04221 -1.71289 0
      vertex 5.94707 -2.05594 0
      vertex 4.4305 -1.65965 0
    endloop
  endfacet
  facet normal 0 0 -1
    outer loop
      vertex 3.6918 -3.12057 0
      vertex 4.11151 -2.41673 0
      vertex 5.37066 -3.46362 0
    endloop
  endfacet
  facet normal 0 0 -1
    outer loop
      vertex 4.60958 -4.59924 0
      vertex 3.6918 -3.12057 0
      vertex 5.37066 -3.46362 0
    endloop
  endfacet
  facet normal 0 0 -1
    outer loop
      vertex 4.60958 -4.59924 0
      vertex 3.17695 -3.75936 0
      vertex 3.6918 -3.12057 0
    endloop
  endfacet
  facet normal 0 0 -1
    outer loop
      vertex 3.65822 -5.5515 0
      vertex 2.58934 -4.30351 0
      vertex 3.17695 -3.75936 0
    endloop
  endfacet
  facet normal 0 0 -1
    outer loop
      vertex 2.82439 -6.13705 0
      vertex 1.94018 -4.74119 0
      vertex 2.58934 -4.30351 0
    endloop
  endfacet
  facet normal 0 0 -1
    outer loop
      vertex 2.52779 -6.29083 0
      vertex 1.42533 -4.98961 0
      vertex 1.94018 -4.74119 0
    endloop
  endfacet
  facet normal 0 0 -1
    outer loop
      vertex 1.90661 -6.58065 0
      vertex 1.09516 -5.09607 0
      vertex 1.42533 -4.98961 0
    endloop
  endfacet
  facet normal 0 0 -1
    outer loop
      vertex 1.3302 -6.76992 0
      vertex 0.608286 -5.17888 0
      vertex 1.09516 -5.09607 0
    endloop
  endfacet
  facet normal -0 0 -1
    outer loop
      vertex 1.3302 -6.76992 0
      vertex 0.709018 -6.8823 0
      vertex 0.608286 -5.17888 0
    endloop
  endfacet
  facet normal 0 0 -1
    outer loop
      vertex 0.608286 -5.17888 0
      vertex 0.154993 -6.93553 0
      vertex -0.169588 -5.23802 0
    endloop
  endfacet
  facet normal 0 0 1
    outer loop
      vertex 2.52779 -6.29083 1
      vertex 1.42533 -4.98961 1
      vertex 1.90661 -6.58065 1
    endloop
  endfacet
  facet normal 0 0 1
    outer loop
      vertex 1.90661 -6.58065 1
      vertex 1.09516 -5.09607 1
      vertex 1.3302 -6.76992 1
    endloop
  endfacet
  facet normal 0 -0 1
    outer loop
      vertex 2.52779 -6.29083 1
      vertex 2.82439 -6.13705 1
      vertex 1.94018 -4.74119 1
    endloop
  endfacet
  facet normal 0 -0 1
    outer loop
      vertex 3.65822 -5.5515 1
      vertex 4.60958 -4.59924 1
      vertex 3.17695 -3.75936 1
    endloop
  endfacet
  facet normal 0 0 1
    outer loop
      vertex 3.65822 -5.5515 1
      vertex 2.58934 -4.30351 1
      vertex 2.82439 -6.13705 1
    endloop
  endfacet
  facet normal 0 -0 1
    outer loop
      vertex 5.37066 -3.46362 1
      vertex 5.80717 -2.50545 1
      vertex 4.11151 -2.41673 1
    endloop
  endfacet
  facet normal 0 0 1
    outer loop
      vertex 6.1989 0.0496831 1
      vertex 6.18771 0.783101 1
      vertex 4.70471 0.156147 1
    endloop
  endfacet
  facet normal 0 0 1
    outer loop
      vertex 4.70471 -0.281538 1
      vertex 4.63196 -0.873004 1
      vertex 6.16532 -0.837516 1
    endloop
  endfacet
  facet normal 0 0 1
    outer loop
      vertex 4.62637 0.877736 1
      vertex 4.70471 0.156147 1
      vertex 6.18771 0.783101 1
    endloop
  endfacet
  facet normal 0 -0 1
    outer loop
      vertex 4.40811 1.78859 1
      vertex 5.59451 3.06025 1
      vertex 4.05555 2.62847 1
    endloop
  endfacet
  facet normal 0 0 1
    outer loop
      vertex 4.05555 2.62847 1
      vertex 5.27553 3.7286 1
      vertex 5.05168 4.10123 1
    endloop
  endfacet
  facet normal 0 -0 1
    outer loop
      vertex 4.05555 2.62847 1
      vertex 5.05168 4.10123 1
      vertex 3.57987 3.38555 1
    endloop
  endfacet
  facet normal 0 0 1
    outer loop
      vertex 3.00346 4.04208 1
      vertex 4.22903 5.1008 1
      vertex 3.45676 5.79873 1
    endloop
  endfacet
  facet normal 0 -0 1
    outer loop
      vertex 3.00346 4.04208 1
      vertex 3.45676 5.79873 1
      vertex 2.32073 4.58623 1
    endloop
  endfacet
  facet normal 0 0 1
    outer loop
      vertex 0.289302 7.02898 1
      vertex -0.0632596 5.37879 1
      vertex 0.524343 5.31965 1
    endloop
  endfacet
  facet normal 0 0 1
    outer loop
      vertex -1.39516 6.99941 1
      vertex -1.66378 6.94618 1
      vertex -1.57424 5.19544 1
    endloop
  endfacet
  facet normal 0 0 1
    outer loop
      vertex 0.289302 7.02898 1
      vertex -0.13601 7.04673 1
      vertex -0.0632596 5.37879 1
    endloop
  endfacet
  facet normal 0 0 1
    outer loop
      vertex -5.04389 4.88787 1
      vertex -5.40764 4.4147 1
      vertex -4.11492 3.43878 1
    endloop
  endfacet
  facet normal 0 0 1
    outer loop
      vertex -5.40764 4.4147 1
      vertex -5.9113 3.58665 1
      vertex -4.47307 2.92421 1
    endloop
  endfacet
  facet normal 0 -0 1
    outer loop
      vertex -4.11492 3.43878 1
      vertex -3.57208 4.03616 1
      vertex -5.04389 4.88787 1
    endloop
  endfacet
  facet normal 0 0 1
    outer loop
      vertex -3.51053 6.1477 1
      vertex -4.45069 5.4616 1
      vertex -2.9565 4.533 1
    endloop
  endfacet
  facet normal 0 0 1
    outer loop
      vertex -3.51053 6.1477 1
      vertex -2.9565 4.533 1
      vertex -2.29055 4.92336 1
    endloop
  endfacet
  facet normal -0 0 1
    outer loop
      vertex -6.40936 2.42738 1
      vertex -5.06068 1.46329 1
      vertex -4.7361 2.45104 1
    endloop
  endfacet
  facet normal 0 0 1
    outer loop
      vertex -1.66378 6.94618 1
      vertex -2.46403 6.6741 1
      vertex -1.57424 5.19544 1
    endloop
  endfacet
  facet normal 0 0 1
    outer loop
      vertex -4.7361 2.45104 1
      vertex -5.9113 3.58665 1
      vertex -6.40936 2.42738 1
    endloop
  endfacet
  facet normal 0 0 1
    outer loop
      vertex -5.22297 0.0496831 1
      vertex -6.8011 0.00828052 1
      vertex -6.68917 -1.21605 1
    endloop
  endfacet
  facet normal 0 -0 1
    outer loop
      vertex 5.80717 -2.50545 1
      vertex 5.94707 -2.05594 1
      vertex 4.4305 -1.65965 1
    endloop
  endfacet
  facet normal 0 0 1
    outer loop
      vertex -1.40075 -5.16705 1
      vertex -1.7701 -5.05467 1
      vertex -1.95478 -6.74035 1
    endloop
  endfacet
  facet normal 0 0 1
    outer loop
      vertex -3.2475 -4.17338 1
      vertex -3.61685 -5.96553 1
      vertex -2.41926 -4.74711 1
    endloop
  endfacet
  facet normal 0 0 1
    outer loop
      vertex -2.41926 -4.74711 1
      vertex -2.67669 -6.46827 1
      vertex -1.7701 -5.05467 1
    endloop
  endfacet
  facet normal 0 0 1
    outer loop
      vertex 0.154993 -6.93553 1
      vertex 0.709018 -6.8823 1
      vertex 0.608286 -5.17888 1
    endloop
  endfacet
  facet normal 0 0 1
    outer loop
      vertex -1.40075 -5.16705 1
      vertex -1.30562 -6.89413 1
      vertex -0.936269 -5.22028 1
    endloop
  endfacet
  facet normal 0 0 1
    outer loop
      vertex 0.154993 -6.93553 1
      vertex -0.169588 -5.23802 1
      vertex -0.544534 -6.95327 1
    endloop
  endfacet
  facet normal 0 -0 1
    outer loop
      vertex -0.941865 -6.94144 1
      vertex -0.936269 -5.22028 1
      vertex -1.30562 -6.89413 1
    endloop
  endfacet
  facet normal 0 0 1
    outer loop
      vertex -0.544534 -6.95327 1
      vertex -0.936269 -5.22028 1
      vertex -0.941865 -6.94144 1
    endloop
  endfacet
  facet normal 0 0 1
    outer loop
      vertex -0.169588 -5.23802 1
      vertex -0.936269 -5.22028 1
      vertex -0.544534 -6.95327 1
    endloop
  endfacet
  facet normal 0 0 1
    outer loop
      vertex -1.30562 -6.89413 1
      vertex -1.40075 -5.16705 1
      vertex -1.95478 -6.74035 1
    endloop
  endfacet
  facet normal 0 0 1
    outer loop
      vertex -1.7701 -5.05467 1
      vertex -2.67669 -6.46827 1
      vertex -1.95478 -6.74035 1
    endloop
  endfacet
  facet normal 0 0 1
    outer loop
      vertex 5.80717 -2.50545 1
      vertex 4.4305 -1.65965 1
      vertex 4.11151 -2.41673 1
    endloop
  endfacet
  facet normal 0 0 1
    outer loop
      vertex -2.41926 -4.74711 1
      vertex -3.61685 -5.96553 1
      vertex -2.67669 -6.46827 1
    endloop
  endfacet
  facet normal 0 0 1
    outer loop
      vertex -3.2475 -4.17338 1
      vertex -4.98793 -4.82991 1
      vertex -4.45629 -5.34449 1
    endloop
  endfacet
  facet normal 0 -0 1
    outer loop
      vertex -3.61685 -5.96553 1
      vertex -3.2475 -4.17338 1
      vertex -4.45629 -5.34449 1
    endloop
  endfacet
  facet normal 0 0 1
    outer loop
      vertex -3.9862 -3.44588 1
      vertex -5.34049 -4.38631 1
      vertex -4.98793 -4.82991 1
    endloop
  endfacet
  facet normal 0 0 1
    outer loop
      vertex -3.2475 -4.17338 1
      vertex -3.9862 -3.44588 1
      vertex -4.98793 -4.82991 1
    endloop
  endfacet
  facet normal 0 0 1
    outer loop
      vertex -4.45629 -2.82484 1
      vertex -5.86093 -3.55826 1
      vertex -5.34049 -4.38631 1
    endloop
  endfacet
  facet normal 0 0 1
    outer loop
      vertex -3.9862 -3.44588 1
      vertex -4.45629 -2.82484 1
      vertex -5.34049 -4.38631 1
    endloop
  endfacet
  facet normal 0 0 1
    outer loop
      vertex -4.74729 -2.31618 1
      vertex -6.37579 -2.41082 1
      vertex -5.86093 -3.55826 1
    endloop
  endfacet
  facet normal 0 0 1
    outer loop
      vertex -4.45629 -2.82484 1
      vertex -4.74729 -2.31618 1
      vertex -5.86093 -3.55826 1
    endloop
  endfacet
  facet normal 0 0 1
    outer loop
      vertex -4.74729 -2.31618 1
      vertex -5.06627 -1.35209 1
      vertex -6.37579 -2.41082 1
    endloop
  endfacet
  facet normal 0 0 1
    outer loop
      vertex -5.22297 0.0496831 1
      vertex -6.68917 -1.21605 1
      vertex -5.06627 -1.35209 1
    endloop
  endfacet
  facet normal 0 0 1
    outer loop
      vertex -5.06627 -1.35209 1
      vertex -6.68917 -1.21605 1
      vertex -6.37579 -2.41082 1
    endloop
  endfacet
  facet normal 0 0 1
    outer loop
      vertex -5.06068 1.46329 1
      vertex -6.70596 1.2267 1
      vertex -5.22297 0.0496831 1
    endloop
  endfacet
  facet normal 0 0 1
    outer loop
      vertex -5.22297 0.0496831 1
      vertex -6.70596 1.2267 1
      vertex -6.8011 0.00828052 1
    endloop
  endfacet
  facet normal 0 0 1
    outer loop
      vertex -6.40936 2.42738 1
      vertex -6.70596 1.2267 1
      vertex -5.06068 1.46329 1
    endloop
  endfacet
  facet normal 0 0 1
    outer loop
      vertex -4.47307 2.92421 1
      vertex -5.9113 3.58665 1
      vertex -4.7361 2.45104 1
    endloop
  endfacet
  facet normal 0 0 1
    outer loop
      vertex -4.11492 3.43878 1
      vertex -5.40764 4.4147 1
      vertex -4.47307 2.92421 1
    endloop
  endfacet
  facet normal 0 0 1
    outer loop
      vertex -3.57208 4.03616 1
      vertex -4.45069 5.4616 1
      vertex -5.04389 4.88787 1
    endloop
  endfacet
  facet normal 0 0 1
    outer loop
      vertex -2.9565 4.533 1
      vertex -4.45069 5.4616 1
      vertex -3.57208 4.03616 1
    endloop
  endfacet
  facet normal 0 -0 1
    outer loop
      vertex -2.29055 4.92336 1
      vertex -1.57424 5.19544 1
      vertex -2.46403 6.6741 1
    endloop
  endfacet
  facet normal -0 0 1
    outer loop
      vertex -3.51053 6.1477 1
      vertex -2.29055 4.92336 1
      vertex -2.46403 6.6741 1
    endloop
  endfacet
  facet normal 0 0 1
    outer loop
      vertex -1.39516 6.99941 1
      vertex -1.57424 5.19544 1
      vertex -0.829941 5.34922 1
    endloop
  endfacet
  facet normal 0 0 1
    outer loop
      vertex -0.829941 5.34922 1
      vertex -0.0632596 5.37879 1
      vertex -0.824344 7.04081 1
    endloop
  endfacet
  facet normal -0 0 1
    outer loop
      vertex -1.39516 6.99941 1
      vertex -0.829941 5.34922 1
      vertex -0.824344 7.04081 1
    endloop
  endfacet
  facet normal 0 0 1
    outer loop
      vertex -0.0632596 5.37879 1
      vertex -0.13601 7.04673 1
      vertex -0.824344 7.04081 1
    endloop
  endfacet
  facet normal 0 0 1
    outer loop
      vertex 0.289302 7.02898 1
      vertex 0.524343 5.31965 1
      vertex 1.24625 6.8752 1
    endloop
  endfacet
  facet normal -0 0 1
    outer loop
      vertex 0.92727 5.22501 1
      vertex 1.55405 5.00617 1
      vertex 1.24625 6.8752 1
    endloop
  endfacet
  facet normal -0 0 1
    outer loop
      vertex 0.524343 5.31965 1
      vertex 0.92727 5.22501 1
      vertex 1.24625 6.8752 1
    endloop
  endfacet
  facet normal -0 0 1
    outer loop
      vertex 1.55405 5.00617 1
      vertex 2.32073 4.58623 1
      vertex 2.39907 6.46709 1
    endloop
  endfacet
  facet normal 0 0 1
    outer loop
      vertex 1.24625 6.8752 1
      vertex 1.55405 5.00617 1
      vertex 2.39907 6.46709 1
    endloop
  endfacet
  facet normal 0 0 1
    outer loop
      vertex 2.32073 4.58623 1
      vertex 3.45676 5.79873 1
      vertex 2.39907 6.46709 1
    endloop
  endfacet
  facet normal 0 0 1
    outer loop
      vertex 4.22903 5.1008 1
      vertex 3.57987 3.38555 1
      vertex 4.79425 4.4561 1
    endloop
  endfacet
  facet normal 0 0 1
    outer loop
      vertex 4.22903 5.1008 1
      vertex 3.00346 4.04208 1
      vertex 3.57987 3.38555 1
    endloop
  endfacet
  facet normal 0 0 1
    outer loop
      vertex 3.57987 3.38555 1
      vertex 5.05168 4.10123 1
      vertex 4.79425 4.4561 1
    endloop
  endfacet
  facet normal 0 0 1
    outer loop
      vertex 4.05555 2.62847 1
      vertex 5.59451 3.06025 1
      vertex 5.27553 3.7286 1
    endloop
  endfacet
  facet normal -0 0 1
    outer loop
      vertex 4.40811 1.78859 1
      vertex 6.08138 1.61115 1
      vertex 5.86313 2.3978 1
    endloop
  endfacet
  facet normal 0 0 1
    outer loop
      vertex 5.59451 3.06025 1
      vertex 4.40811 1.78859 1
      vertex 5.86313 2.3978 1
    endloop
  endfacet
  facet normal -0 0 1
    outer loop
      vertex 4.62637 0.877736 1
      vertex 6.18771 0.783101 1
      vertex 6.08138 1.61115 1
    endloop
  endfacet
  facet normal 0 0 1
    outer loop
      vertex 4.40811 1.78859 1
      vertex 4.62637 0.877736 1
      vertex 6.08138 1.61115 1
    endloop
  endfacet
  facet normal 0 0 1
    outer loop
      vertex 6.1989 0.0496831 1
      vertex 4.70471 -0.281538 1
      vertex 6.16532 -0.837516 1
    endloop
  endfacet
  facet normal 0 0 1
    outer loop
      vertex 6.1989 0.0496831 1
      vertex 4.70471 0.156147 1
      vertex 4.70471 -0.281538 1
    endloop
  endfacet
  facet normal 0 0 1
    outer loop
      vertex 6.12055 -1.30477 1
      vertex 4.63196 -0.873004 1
      vertex 6.04221 -1.71289 1
    endloop
  endfacet
  facet normal 0 -0 1
    outer loop
      vertex 6.12055 -1.30477 1
      vertex 6.16532 -0.837516 1
      vertex 4.63196 -0.873004 1
    endloop
  endfacet
  facet normal 0 0 1
    outer loop
      vertex 4.63196 -0.873004 1
      vertex 4.4305 -1.65965 1
      vertex 6.04221 -1.71289 1
    endloop
  endfacet
  facet normal 0 0 1
    outer loop
      vertex 4.4305 -1.65965 1
      vertex 5.94707 -2.05594 1
      vertex 6.04221 -1.71289 1
    endloop
  endfacet
  facet normal 0 0 1
    outer loop
      vertex 5.37066 -3.46362 1
      vertex 4.11151 -2.41673 1
      vertex 3.6918 -3.12057 1
    endloop
  endfacet
  facet normal 0 0 1
    outer loop
      vertex 5.37066 -3.46362 1
      vertex 3.6918 -3.12057 1
      vertex 4.60958 -4.59924 1
    endloop
  endfacet
  facet normal 0 0 1
    outer loop
      vertex 3.6918 -3.12057 1
      vertex 3.17695 -3.75936 1
      vertex 4.60958 -4.59924 1
    endloop
  endfacet
  facet normal 0 0 1
    outer loop
      vertex 3.17695 -3.75936 1
      vertex 2.58934 -4.30351 1
      vertex 3.65822 -5.5515 1
    endloop
  endfacet
  facet normal 0 0 1
    outer loop
      vertex 2.58934 -4.30351 1
      vertex 1.94018 -4.74119 1
      vertex 2.82439 -6.13705 1
    endloop
  endfacet
  facet normal 0 0 1
    outer loop
      vertex 1.94018 -4.74119 1
      vertex 1.42533 -4.98961 1
      vertex 2.52779 -6.29083 1
    endloop
  endfacet
  facet normal 0 0 1
    outer loop
      vertex 1.42533 -4.98961 1
      vertex 1.09516 -5.09607 1
      vertex 1.90661 -6.58065 1
    endloop
  endfacet
  facet normal 0 0 1
    outer loop
      vertex 1.09516 -5.09607 1
      vertex 0.608286 -5.17888 1
      vertex 1.3302 -6.76992 1
    endloop
  endfacet
  facet normal 0 0 1
    outer loop
      vertex 0.608286 -5.17888 1
      vertex 0.709018 -6.8823 1
      vertex 1.3302 -6.76992 1
    endloop
  endfacet
  facet normal -0 0 1
    outer loop
      vertex -0.169588 -5.23802 1
      vertex 0.154993 -6.93553 1
      vertex 0.608286 -5.17888 1
    endloop
  endfacet
  facet normal 0.0253575 -0.999678 0
    outer loop
      vertex 0.154993 -6.93553 0
      vertex -0.544534 -6.95327 1
      vertex -0.544534 -6.95327 0
    endloop
  endfacet
  facet normal 0.0253575 -0.999678 0
    outer loop
      vertex 0.154993 -6.93553 0
      vertex 0.154993 -6.93553 1
      vertex -0.544534 -6.95327 1
    endloop
  endfacet
  facet normal 0.0956417 -0.995416 0
    outer loop
      vertex 0.709018 -6.8823 0
      vertex 0.154993 -6.93553 1
      vertex 0.154993 -6.93553 0
    endloop
  endfacet
  facet normal 0.0956417 -0.995416 0
    outer loop
      vertex 0.709018 -6.8823 0
      vertex 0.709018 -6.8823 1
      vertex 0.154993 -6.93553 1
    endloop
  endfacet
  facet normal 0.178022 -0.984027 0
    outer loop
      vertex 1.3302 -6.76992 0
      vertex 0.709018 -6.8823 1
      vertex 0.709018 -6.8823 0
    endloop
  endfacet
  facet normal 0.178022 -0.984027 0
    outer loop
      vertex 1.3302 -6.76992 0
      vertex 1.3302 -6.76992 1
      vertex 0.709018 -6.8823 1
    endloop
  endfacet
  facet normal 0.311971 -0.950092 0
    outer loop
      vertex 1.90661 -6.58065 0
      vertex 1.3302 -6.76992 1
      vertex 1.3302 -6.76992 0
    endloop
  endfacet
  facet normal 0.311971 -0.950092 0
    outer loop
      vertex 1.90661 -6.58065 0
      vertex 1.90661 -6.58065 1
      vertex 1.3302 -6.76992 1
    endloop
  endfacet
  facet normal 0.422807 -0.90622 0
    outer loop
      vertex 2.52779 -6.29083 0
      vertex 1.90661 -6.58065 1
      vertex 1.90661 -6.58065 0
    endloop
  endfacet
  facet normal 0.422807 -0.90622 0
    outer loop
      vertex 2.52779 -6.29083 0
      vertex 2.52779 -6.29083 1
      vertex 1.90661 -6.58065 1
    endloop
  endfacet
  facet normal 0.460291 -0.887768 0
    outer loop
      vertex 2.82439 -6.13705 0
      vertex 2.52779 -6.29083 1
      vertex 2.52779 -6.29083 0
    endloop
  endfacet
  facet normal 0.460291 -0.887768 0
    outer loop
      vertex 2.82439 -6.13705 0
      vertex 2.82439 -6.13705 1
      vertex 2.52779 -6.29083 1
    endloop
  endfacet
  facet normal 0.574691 -0.81837 0
    outer loop
      vertex 3.65822 -5.5515 0
      vertex 2.82439 -6.13705 1
      vertex 2.82439 -6.13705 0
    endloop
  endfacet
  facet normal 0.574691 -0.81837 0
    outer loop
      vertex 3.65822 -5.5515 0
      vertex 3.65822 -5.5515 1
      vertex 2.82439 -6.13705 1
    endloop
  endfacet
  facet normal 0.707443 -0.706771 0
    outer loop
      vertex 4.60958 -4.59924 0
      vertex 3.65822 -5.5515 1
      vertex 3.65822 -5.5515 0
    endloop
  endfacet
  facet normal 0.707443 -0.706771 0
    outer loop
      vertex 4.60958 -4.59924 0
      vertex 4.60958 -4.59924 1
      vertex 3.65822 -5.5515 1
    endloop
  endfacet
  facet normal 0.830695 -0.556728 0
    outer loop
      vertex 5.37066 -3.46362 0
      vertex 4.60958 -4.59924 1
      vertex 4.60958 -4.59924 0
    endloop
  endfacet
  facet normal 0.830695 -0.556728 0
    outer loop
      vertex 5.37066 -3.46362 0
      vertex 5.37066 -3.46362 1
      vertex 4.60958 -4.59924 1
    endloop
  endfacet
  facet normal 0.910019 -0.414567 0
    outer loop
      vertex 5.80717 -2.50545 0
      vertex 5.37066 -3.46362 1
      vertex 5.37066 -3.46362 0
    endloop
  endfacet
  facet normal 0.910019 -0.414567 0
    outer loop
      vertex 5.80717 -2.50545 0
      vertex 5.80717 -2.50545 1
      vertex 5.37066 -3.46362 1
    endloop
  endfacet
  facet normal 0.954823 -0.297176 0
    outer loop
      vertex 5.94707 -2.05594 0
      vertex 5.80717 -2.50545 1
      vertex 5.80717 -2.50545 0
    endloop
  endfacet
  facet normal 0.954823 -0.297176 0
    outer loop
      vertex 5.94707 -2.05594 0
      vertex 5.94707 -2.05594 1
      vertex 5.80717 -2.50545 1
    endloop
  endfacet
  facet normal 0.963631 -0.267237 0
    outer loop
      vertex 6.04221 -1.71289 0
      vertex 5.94707 -2.05594 1
      vertex 5.94707 -2.05594 0
    endloop
  endfacet
  facet normal 0.963631 -0.267237 0
    outer loop
      vertex 6.04221 -1.71289 0
      vertex 6.04221 -1.71289 1
      vertex 5.94707 -2.05594 1
    endloop
  endfacet
  facet normal 0.982067 -0.188532 0
    outer loop
      vertex 6.12055 -1.30477 0
      vertex 6.04221 -1.71289 1
      vertex 6.04221 -1.71289 0
    endloop
  endfacet
  facet normal 0.982067 -0.188532 0
    outer loop
      vertex 6.12055 -1.30477 0
      vertex 6.12055 -1.30477 1
      vertex 6.04221 -1.71289 1
    endloop
  endfacet
  facet normal 0.995441 -0.0953768 0
    outer loop
      vertex 6.16532 -0.837516 0
      vertex 6.12055 -1.30477 1
      vertex 6.12055 -1.30477 0
    endloop
  endfacet
  facet normal 0.995441 -0.0953768 0
    outer loop
      vertex 6.16532 -0.837516 0
      vertex 6.16532 -0.837516 1
      vertex 6.12055 -1.30477 1
    endloop
  endfacet
  facet normal 0.999285 -0.0378193 0
    outer loop
      vertex 6.1989 0.0496831 0
      vertex 6.16532 -0.837516 1
      vertex 6.16532 -0.837516 0
    endloop
  endfacet
  facet normal 0.999285 -0.0378193 0
    outer loop
      vertex 6.1989 0.0496831 0
      vertex 6.1989 0.0496831 1
      vertex 6.16532 -0.837516 1
    endloop
  endfacet
  facet normal 0.999884 0.0152589 0
    outer loop
      vertex 6.18771 0.783101 0
      vertex 6.1989 0.0496831 1
      vertex 6.1989 0.0496831 0
    endloop
  endfacet
  facet normal 0.999884 0.0152589 -0
    outer loop
      vertex 6.18771 0.783101 0
      vertex 6.18771 0.783101 1
      vertex 6.1989 0.0496831 1
    endloop
  endfacet
  facet normal 0.991856 0.127362 0
    outer loop
      vertex 6.08138 1.61115 0
      vertex 6.18771 0.783101 1
      vertex 6.18771 0.783101 0
    endloop
  endfacet
  facet normal 0.991856 0.127362 -0
    outer loop
      vertex 6.08138 1.61115 0
      vertex 6.08138 1.61115 1
      vertex 6.18771 0.783101 1
    endloop
  endfacet
  facet normal 0.9636 0.267346 0
    outer loop
      vertex 5.86313 2.3978 0
      vertex 6.08138 1.61115 1
      vertex 6.08138 1.61115 0
    endloop
  endfacet
  facet normal 0.9636 0.267346 -0
    outer loop
      vertex 5.86313 2.3978 0
      vertex 5.86313 2.3978 1
      vertex 6.08138 1.61115 1
    endloop
  endfacet
  facet normal 0.92671 0.375778 0
    outer loop
      vertex 5.59451 3.06025 0
      vertex 5.86313 2.3978 1
      vertex 5.86313 2.3978 0
    endloop
  endfacet
  facet normal 0.92671 0.375778 -0
    outer loop
      vertex 5.59451 3.06025 0
      vertex 5.59451 3.06025 1
      vertex 5.86313 2.3978 1
    endloop
  endfacet
  facet normal 0.902483 0.430725 0
    outer loop
      vertex 5.27553 3.7286 0
      vertex 5.59451 3.06025 1
      vertex 5.59451 3.06025 0
    endloop
  endfacet
  facet normal 0.902483 0.430725 -0
    outer loop
      vertex 5.27553 3.7286 0
      vertex 5.27553 3.7286 1
      vertex 5.59451 3.06025 1
    endloop
  endfacet
  facet normal 0.857214 0.51496 0
    outer loop
      vertex 5.05168 4.10123 0
      vertex 5.27553 3.7286 1
      vertex 5.27553 3.7286 0
    endloop
  endfacet
  facet normal 0.857214 0.51496 -0
    outer loop
      vertex 5.05168 4.10123 0
      vertex 5.05168 4.10123 1
      vertex 5.27553 3.7286 1
    endloop
  endfacet
  facet normal 0.809461 0.587174 0
    outer loop
      vertex 4.79425 4.4561 0
      vertex 5.05168 4.10123 1
      vertex 5.05168 4.10123 0
    endloop
  endfacet
  facet normal 0.809461 0.587174 -0
    outer loop
      vertex 4.79425 4.4561 0
      vertex 4.79425 4.4561 1
      vertex 5.05168 4.10123 1
    endloop
  endfacet
  facet normal 0.751937 0.659235 0
    outer loop
      vertex 4.22903 5.1008 0
      vertex 4.79425 4.4561 1
      vertex 4.79425 4.4561 0
    endloop
  endfacet
  facet normal 0.751937 0.659235 -0
    outer loop
      vertex 4.22903 5.1008 0
      vertex 4.22903 5.1008 1
      vertex 4.79425 4.4561 1
    endloop
  endfacet
  facet normal 0.670492 0.741917 0
    outer loop
      vertex 3.45676 5.79873 0
      vertex 4.22903 5.1008 1
      vertex 4.22903 5.1008 0
    endloop
  endfacet
  facet normal 0.670492 0.741917 -0
    outer loop
      vertex 3.45676 5.79873 0
      vertex 3.45676 5.79873 1
      vertex 4.22903 5.1008 1
    endloop
  endfacet
  facet normal 0.53419 0.845364 0
    outer loop
      vertex 2.39907 6.46709 0
      vertex 3.45676 5.79873 1
      vertex 3.45676 5.79873 0
    endloop
  endfacet
  facet normal 0.53419 0.845364 -0
    outer loop
      vertex 2.39907 6.46709 0
      vertex 2.39907 6.46709 1
      vertex 3.45676 5.79873 1
    endloop
  endfacet
  facet normal 0.333717 0.942673 0
    outer loop
      vertex 1.24625 6.8752 0
      vertex 2.39907 6.46709 1
      vertex 2.39907 6.46709 0
    endloop
  endfacet
  facet normal 0.333717 0.942673 -0
    outer loop
      vertex 1.24625 6.8752 0
      vertex 1.24625 6.8752 1
      vertex 2.39907 6.46709 1
    endloop
  endfacet
  facet normal 0.158663 0.987333 0
    outer loop
      vertex 0.289302 7.02898 0
      vertex 1.24625 6.8752 1
      vertex 1.24625 6.8752 0
    endloop
  endfacet
  facet normal 0.158663 0.987333 -0
    outer loop
      vertex 0.289302 7.02898 0
      vertex 0.289302 7.02898 1
      vertex 1.24625 6.8752 1
    endloop
  endfacet
  facet normal 0.0416836 0.999131 0
    outer loop
      vertex -0.13601 7.04673 0
      vertex 0.289302 7.02898 1
      vertex 0.289302 7.02898 0
    endloop
  endfacet
  facet normal 0.0416836 0.999131 -0
    outer loop
      vertex -0.13601 7.04673 0
      vertex -0.13601 7.04673 1
      vertex 0.289302 7.02898 1
    endloop
  endfacet
  facet normal -0.0085924 0.999963 0
    outer loop
      vertex -0.824344 7.04081 0
      vertex -0.13601 7.04673 1
      vertex -0.13601 7.04673 0
    endloop
  endfacet
  facet normal -0.0085924 0.999963 0
    outer loop
      vertex -0.824344 7.04081 0
      vertex -0.824344 7.04081 1
      vertex -0.13601 7.04673 1
    endloop
  endfacet
  facet normal -0.0723426 0.99738 0
    outer loop
      vertex -1.39516 6.99941 0
      vertex -0.824344 7.04081 1
      vertex -0.824344 7.04081 0
    endloop
  endfacet
  facet normal -0.0723426 0.99738 0
    outer loop
      vertex -1.39516 6.99941 0
      vertex -1.39516 6.99941 1
      vertex -0.824344 7.04081 1
    endloop
  endfacet
  facet normal -0.194389 0.980924 0
    outer loop
      vertex -1.66378 6.94618 0
      vertex -1.39516 6.99941 1
      vertex -1.39516 6.99941 0
    endloop
  endfacet
  facet normal -0.194389 0.980924 0
    outer loop
      vertex -1.66378 6.94618 0
      vertex -1.66378 6.94618 1
      vertex -1.39516 6.99941 1
    endloop
  endfacet
  facet normal -0.321888 0.946778 0
    outer loop
      vertex -2.46403 6.6741 0
      vertex -1.66378 6.94618 1
      vertex -1.66378 6.94618 0
    endloop
  endfacet
  facet normal -0.321888 0.946778 0
    outer loop
      vertex -2.46403 6.6741 0
      vertex -2.46403 6.6741 1
      vertex -1.66378 6.94618 1
    endloop
  endfacet
  facet normal -0.44937 0.893346 0
    outer loop
      vertex -3.51053 6.1477 0
      vertex -2.46403 6.6741 1
      vertex -2.46403 6.6741 0
    endloop
  endfacet
  facet normal -0.44937 0.893346 0
    outer loop
      vertex -3.51053 6.1477 0
      vertex -3.51053 6.1477 1
      vertex -2.46403 6.6741 1
    endloop
  endfacet
  facet normal -0.589489 0.807777 0
    outer loop
      vertex -4.45069 5.4616 0
      vertex -3.51053 6.1477 1
      vertex -3.51053 6.1477 0
    endloop
  endfacet
  facet normal -0.589489 0.807777 0
    outer loop
      vertex -4.45069 5.4616 0
      vertex -4.45069 5.4616 1
      vertex -3.51053 6.1477 1
    endloop
  endfacet
  facet normal -0.695208 0.718809 0
    outer loop
      vertex -5.04389 4.88787 0
      vertex -4.45069 5.4616 1
      vertex -4.45069 5.4616 0
    endloop
  endfacet
  facet normal -0.695208 0.718809 0
    outer loop
      vertex -5.04389 4.88787 0
      vertex -5.04389 4.88787 1
      vertex -4.45069 5.4616 1
    endloop
  endfacet
  facet normal -0.792806 0.609474 0
    outer loop
      vertex -5.40764 4.4147 0
      vertex -5.04389 4.88787 1
      vertex -5.04389 4.88787 0
    endloop
  endfacet
  facet normal -0.792806 0.609474 0
    outer loop
      vertex -5.40764 4.4147 0
      vertex -5.40764 4.4147 1
      vertex -5.04389 4.88787 1
    endloop
  endfacet
  facet normal -0.854369 0.519666 0
    outer loop
      vertex -5.9113 3.58665 0
      vertex -5.40764 4.4147 1
      vertex -5.40764 4.4147 0
    endloop
  endfacet
  facet normal -0.854369 0.519666 0
    outer loop
      vertex -5.9113 3.58665 0
      vertex -5.9113 3.58665 1
      vertex -5.40764 4.4147 1
    endloop
  endfacet
  facet normal -0.918791 0.394744 0
    outer loop
      vertex -6.40936 2.42738 0
      vertex -5.9113 3.58665 1
      vertex -5.9113 3.58665 0
    endloop
  endfacet
  facet normal -0.918791 0.394744 0
    outer loop
      vertex -6.40936 2.42738 0
      vertex -6.40936 2.42738 1
      vertex -5.9113 3.58665 1
    endloop
  endfacet
  facet normal -0.970818 0.239818 0
    outer loop
      vertex -6.70596 1.2267 0
      vertex -6.40936 2.42738 1
      vertex -6.40936 2.42738 0
    endloop
  endfacet
  facet normal -0.970818 0.239818 0
    outer loop
      vertex -6.70596 1.2267 0
      vertex -6.70596 1.2267 1
      vertex -6.40936 2.42738 1
    endloop
  endfacet
  facet normal -0.996966 0.0778442 0
    outer loop
      vertex -6.8011 0.00828052 0
      vertex -6.70596 1.2267 1
      vertex -6.70596 1.2267 0
    endloop
  endfacet
  facet normal -0.996966 0.0778442 0
    outer loop
      vertex -6.8011 0.00828052 0
      vertex -6.8011 0.00828052 1
      vertex -6.70596 1.2267 1
    endloop
  endfacet
  facet normal -0.995848 -0.0910368 0
    outer loop
      vertex -6.68917 -1.21605 0
      vertex -6.8011 0.00828052 1
      vertex -6.8011 0.00828052 0
    endloop
  endfacet
  facet normal -0.995848 -0.0910368 0
    outer loop
      vertex -6.68917 -1.21605 0
      vertex -6.68917 -1.21605 1
      vertex -6.8011 0.00828052 1
    endloop
  endfacet
  facet normal -0.967278 -0.253719 0
    outer loop
      vertex -6.37579 -2.41082 0
      vertex -6.68917 -1.21605 1
      vertex -6.68917 -1.21605 0
    endloop
  endfacet
  facet normal -0.967278 -0.253719 0
    outer loop
      vertex -6.37579 -2.41082 0
      vertex -6.37579 -2.41082 1
      vertex -6.68917 -1.21605 1
    endloop
  endfacet
  facet normal -0.912367 -0.409374 0
    outer loop
      vertex -5.86093 -3.55826 0
      vertex -6.37579 -2.41082 1
      vertex -6.37579 -2.41082 0
    endloop
  endfacet
  facet normal -0.912367 -0.409374 0
    outer loop
      vertex -5.86093 -3.55826 0
      vertex -5.86093 -3.55826 1
      vertex -6.37579 -2.41082 1
    endloop
  endfacet
  facet normal -0.846656 -0.53214 0
    outer loop
      vertex -5.34049 -4.38631 0
      vertex -5.86093 -3.55826 1
      vertex -5.86093 -3.55826 0
    endloop
  endfacet
  facet normal -0.846656 -0.53214 0
    outer loop
      vertex -5.34049 -4.38631 0
      vertex -5.34049 -4.38631 1
      vertex -5.86093 -3.55826 1
    endloop
  endfacet
  facet normal -0.782861 -0.622197 0
    outer loop
      vertex -4.98793 -4.82991 0
      vertex -5.34049 -4.38631 1
      vertex -5.34049 -4.38631 0
    endloop
  endfacet
  facet normal -0.782861 -0.622197 0
    outer loop
      vertex -4.98793 -4.82991 0
      vertex -4.98793 -4.82991 1
      vertex -5.34049 -4.38631 1
    endloop
  endfacet
  facet normal -0.695481 -0.718545 0
    outer loop
      vertex -4.45629 -5.34449 0
      vertex -4.98793 -4.82991 1
      vertex -4.98793 -4.82991 0
    endloop
  endfacet
  facet normal -0.695481 -0.718545 0
    outer loop
      vertex -4.45629 -5.34449 0
      vertex -4.45629 -5.34449 1
      vertex -4.98793 -4.82991 1
    endloop
  endfacet
  facet normal -0.594756 -0.803906 0
    outer loop
      vertex -3.61685 -5.96553 0
      vertex -4.45629 -5.34449 1
      vertex -4.45629 -5.34449 0
    endloop
  endfacet
  facet normal -0.594756 -0.803906 0
    outer loop
      vertex -3.61685 -5.96553 0
      vertex -3.61685 -5.96553 1
      vertex -4.45629 -5.34449 1
    endloop
  endfacet
  facet normal -0.471556 -0.881836 0
    outer loop
      vertex -2.67669 -6.46827 0
      vertex -3.61685 -5.96553 1
      vertex -3.61685 -5.96553 0
    endloop
  endfacet
  facet normal -0.471556 -0.881836 0
    outer loop
      vertex -2.67669 -6.46827 0
      vertex -2.67669 -6.46827 1
      vertex -3.61685 -5.96553 1
    endloop
  endfacet
  facet normal -0.352666 -0.935749 0
    outer loop
      vertex -1.95478 -6.74035 0
      vertex -2.67669 -6.46827 1
      vertex -2.67669 -6.46827 0
    endloop
  endfacet
  facet normal -0.352666 -0.935749 0
    outer loop
      vertex -1.95478 -6.74035 0
      vertex -1.95478 -6.74035 1
      vertex -2.67669 -6.46827 1
    endloop
  endfacet
  facet normal -0.230513 -0.973069 0
    outer loop
      vertex -1.30562 -6.89413 0
      vertex -1.95478 -6.74035 1
      vertex -1.95478 -6.74035 0
    endloop
  endfacet
  facet normal -0.230513 -0.973069 0
    outer loop
      vertex -1.30562 -6.89413 0
      vertex -1.30562 -6.89413 1
      vertex -1.95478 -6.74035 1
    endloop
  endfacet
  facet normal -0.128994 -0.991645 0
    outer loop
      vertex -0.941865 -6.94144 0
      vertex -1.30562 -6.89413 1
      vertex -1.30562 -6.89413 0
    endloop
  endfacet
  facet normal -0.128994 -0.991645 0
    outer loop
      vertex -0.941865 -6.94144 0
      vertex -0.941865 -6.94144 1
      vertex -1.30562 -6.89413 1
    endloop
  endfacet
  facet normal -0.0297588 -0.999557 0
    outer loop
      vertex -0.544534 -6.95327 0
      vertex -0.941865 -6.94144 1
      vertex -0.941865 -6.94144 0
    endloop
  endfacet
  facet normal -0.0297588 -0.999557 0
    outer loop
      vertex -0.544534 -6.95327 0
      vertex -0.544534 -6.95327 1
      vertex -0.941865 -6.94144 1
    endloop
  endfacet
  facet normal 0.113859 0.993497 -0
    outer loop
      vertex -1.40075 -5.16705 0
      vertex -1.40075 -5.16705 1
      vertex -0.936269 -5.22028 0
    endloop
  endfacet
  facet normal 0.113859 0.993497 0
    outer loop
      vertex -0.936269 -5.22028 1
      vertex -0.936269 -5.22028 0
      vertex -1.40075 -5.16705 1
    endloop
  endfacet
  facet normal 0.291085 0.956697 -0
    outer loop
      vertex -1.7701 -5.05467 0
      vertex -1.7701 -5.05467 1
      vertex -1.40075 -5.16705 0
    endloop
  endfacet
  facet normal 0.291085 0.956697 0
    outer loop
      vertex -1.40075 -5.16705 1
      vertex -1.40075 -5.16705 0
      vertex -1.7701 -5.05467 1
    endloop
  endfacet
  facet normal 0.42816 0.903703 -0
    outer loop
      vertex -2.41926 -4.74711 0
      vertex -2.41926 -4.74711 1
      vertex -1.7701 -5.05467 0
    endloop
  endfacet
  facet normal 0.42816 0.903703 0
    outer loop
      vertex -1.7701 -5.05467 1
      vertex -1.7701 -5.05467 0
      vertex -2.41926 -4.74711 1
    endloop
  endfacet
  facet normal 0.569428 0.822041 -0
    outer loop
      vertex -3.2475 -4.17338 0
      vertex -3.2475 -4.17338 1
      vertex -2.41926 -4.74711 0
    endloop
  endfacet
  facet normal 0.569428 0.822041 0
    outer loop
      vertex -2.41926 -4.74711 1
      vertex -2.41926 -4.74711 0
      vertex -3.2475 -4.17338 1
    endloop
  endfacet
  facet normal 0.701686 0.712486 -0
    outer loop
      vertex -3.9862 -3.44588 0
      vertex -3.9862 -3.44588 1
      vertex -3.2475 -4.17338 0
    endloop
  endfacet
  facet normal 0.701686 0.712486 0
    outer loop
      vertex -3.2475 -4.17338 1
      vertex -3.2475 -4.17338 0
      vertex -3.9862 -3.44588 1
    endloop
  endfacet
  facet normal 0.797341 0.603529 -0
    outer loop
      vertex -4.45629 -2.82484 0
      vertex -4.45629 -2.82484 1
      vertex -3.9862 -3.44588 0
    endloop
  endfacet
  facet normal 0.797341 0.603529 0
    outer loop
      vertex -3.9862 -3.44588 1
      vertex -3.9862 -3.44588 0
      vertex -4.45629 -2.82484 1
    endloop
  endfacet
  facet normal 0.867993 0.496576 -0
    outer loop
      vertex -4.74729 -2.31618 0
      vertex -4.74729 -2.31618 1
      vertex -4.45629 -2.82484 0
    endloop
  endfacet
  facet normal 0.867993 0.496576 0
    outer loop
      vertex -4.45629 -2.82484 1
      vertex -4.45629 -2.82484 0
      vertex -4.74729 -2.31618 1
    endloop
  endfacet
  facet normal 0.949384 0.314118 -0
    outer loop
      vertex -5.06627 -1.35209 0
      vertex -5.06627 -1.35209 1
      vertex -4.74729 -2.31618 0
    endloop
  endfacet
  facet normal 0.949384 0.314118 0
    outer loop
      vertex -4.74729 -2.31618 1
      vertex -4.74729 -2.31618 0
      vertex -5.06627 -1.35209 1
    endloop
  endfacet
  facet normal 0.99381 0.111091 -0
    outer loop
      vertex -5.22297 0.0496831 0
      vertex -5.22297 0.0496831 1
      vertex -5.06627 -1.35209 0
    endloop
  endfacet
  facet normal 0.99381 0.111091 0
    outer loop
      vertex -5.06627 -1.35209 1
      vertex -5.06627 -1.35209 0
      vertex -5.22297 0.0496831 1
    endloop
  endfacet
  facet normal 0.993474 -0.114057 0
    outer loop
      vertex -5.06068 1.46329 0
      vertex -5.06068 1.46329 1
      vertex -5.22297 0.0496831 0
    endloop
  endfacet
  facet normal 0.993474 -0.114057 0
    outer loop
      vertex -5.22297 0.0496831 1
      vertex -5.22297 0.0496831 0
      vertex -5.06068 1.46329 1
    endloop
  endfacet
  facet normal 0.950022 -0.312183 0
    outer loop
      vertex -4.7361 2.45104 0
      vertex -4.7361 2.45104 1
      vertex -5.06068 1.46329 0
    endloop
  endfacet
  facet normal 0.950022 -0.312183 0
    outer loop
      vertex -5.06068 1.46329 1
      vertex -5.06068 1.46329 0
      vertex -4.7361 2.45104 1
    endloop
  endfacet
  facet normal 0.874041 -0.485852 0
    outer loop
      vertex -4.47307 2.92421 0
      vertex -4.47307 2.92421 1
      vertex -4.7361 2.45104 0
    endloop
  endfacet
  facet normal 0.874041 -0.485852 0
    outer loop
      vertex -4.7361 2.45104 1
      vertex -4.7361 2.45104 0
      vertex -4.47307 2.92421 1
    endloop
  endfacet
  facet normal 0.820762 -0.571271 0
    outer loop
      vertex -4.11492 3.43878 0
      vertex -4.11492 3.43878 1
      vertex -4.47307 2.92421 0
    endloop
  endfacet
  facet normal 0.820762 -0.571271 0
    outer loop
      vertex -4.47307 2.92421 1
      vertex -4.47307 2.92421 0
      vertex -4.11492 3.43878 1
    endloop
  endfacet
  facet normal 0.740089 -0.672509 0
    outer loop
      vertex -3.57208 4.03616 0
      vertex -3.57208 4.03616 1
      vertex -4.11492 3.43878 0
    endloop
  endfacet
  facet normal 0.740089 -0.672509 0
    outer loop
      vertex -4.11492 3.43878 1
      vertex -4.11492 3.43878 0
      vertex -3.57208 4.03616 1
    endloop
  endfacet
  facet normal 0.628054 -0.77817 0
    outer loop
      vertex -2.9565 4.533 0
      vertex -2.9565 4.533 1
      vertex -3.57208 4.03616 0
    endloop
  endfacet
  facet normal 0.628054 -0.77817 0
    outer loop
      vertex -3.57208 4.03616 1
      vertex -3.57208 4.03616 0
      vertex -2.9565 4.533 1
    endloop
  endfacet
  facet normal 0.505704 -0.862707 0
    outer loop
      vertex -2.29055 4.92336 0
      vertex -2.29055 4.92336 1
      vertex -2.9565 4.533 0
    endloop
  endfacet
  facet normal 0.505704 -0.862707 0
    outer loop
      vertex -2.9565 4.533 1
      vertex -2.9565 4.533 0
      vertex -2.29055 4.92336 1
    endloop
  endfacet
  facet normal 0.355075 -0.934838 0
    outer loop
      vertex -1.57424 5.19544 0
      vertex -1.57424 5.19544 1
      vertex -2.29055 4.92336 0
    endloop
  endfacet
  facet normal 0.355075 -0.934838 0
    outer loop
      vertex -2.29055 4.92336 1
      vertex -2.29055 4.92336 0
      vertex -1.57424 5.19544 1
    endloop
  endfacet
  facet normal 0.202339 -0.979316 0
    outer loop
      vertex -0.829941 5.34922 0
      vertex -0.829941 5.34922 1
      vertex -1.57424 5.19544 0
    endloop
  endfacet
  facet normal 0.202339 -0.979316 0
    outer loop
      vertex -1.57424 5.19544 1
      vertex -1.57424 5.19544 0
      vertex -0.829941 5.34922 1
    endloop
  endfacet
  facet normal 0.0385445 -0.999257 0
    outer loop
      vertex -0.0632596 5.37879 0
      vertex -0.0632596 5.37879 1
      vertex -0.829941 5.34922 0
    endloop
  endfacet
  facet normal 0.0385445 -0.999257 0
    outer loop
      vertex -0.829941 5.34922 1
      vertex -0.829941 5.34922 0
      vertex -0.0632596 5.37879 1
    endloop
  endfacet
  facet normal -0.100151 -0.994972 0
    outer loop
      vertex 0.524343 5.31965 0
      vertex 0.524343 5.31965 1
      vertex -0.0632596 5.37879 0
    endloop
  endfacet
  facet normal -0.100151 -0.994972 -0
    outer loop
      vertex -0.0632596 5.37879 1
      vertex -0.0632596 5.37879 0
      vertex 0.524343 5.31965 1
    endloop
  endfacet
  facet normal -0.228646 -0.97351 0
    outer loop
      vertex 0.92727 5.22501 0
      vertex 0.92727 5.22501 1
      vertex 0.524343 5.31965 0
    endloop
  endfacet
  facet normal -0.228646 -0.97351 -0
    outer loop
      vertex 0.524343 5.31965 1
      vertex 0.524343 5.31965 0
      vertex 0.92727 5.22501 1
    endloop
  endfacet
  facet normal -0.32964 -0.944107 0
    outer loop
      vertex 1.55405 5.00617 0
      vertex 1.55405 5.00617 1
      vertex 0.92727 5.22501 0
    endloop
  endfacet
  facet normal -0.32964 -0.944107 -0
    outer loop
      vertex 0.92727 5.22501 1
      vertex 0.92727 5.22501 0
      vertex 1.55405 5.00617 1
    endloop
  endfacet
  facet normal -0.480395 -0.877052 0
    outer loop
      vertex 2.32073 4.58623 0
      vertex 2.32073 4.58623 1
      vertex 1.55405 5.00617 0
    endloop
  endfacet
  facet normal -0.480395 -0.877052 -0
    outer loop
      vertex 1.55405 5.00617 1
      vertex 1.55405 5.00617 0
      vertex 2.32073 4.58623 1
    endloop
  endfacet
  facet normal -0.623268 -0.782008 0
    outer loop
      vertex 3.00346 4.04208 0
      vertex 3.00346 4.04208 1
      vertex 2.32073 4.58623 0
    endloop
  endfacet
  facet normal -0.623268 -0.782008 -0
    outer loop
      vertex 2.32073 4.58623 1
      vertex 2.32073 4.58623 0
      vertex 3.00346 4.04208 1
    endloop
  endfacet
  facet normal -0.75147 -0.659767 0
    outer loop
      vertex 3.57987 3.38555 0
      vertex 3.57987 3.38555 1
      vertex 3.00346 4.04208 0
    endloop
  endfacet
  facet normal -0.75147 -0.659767 -0
    outer loop
      vertex 3.00346 4.04208 1
      vertex 3.00346 4.04208 0
      vertex 3.57987 3.38555 1
    endloop
  endfacet
  facet normal -0.846737 -0.532012 0
    outer loop
      vertex 4.05555 2.62847 0
      vertex 4.05555 2.62847 1
      vertex 3.57987 3.38555 0
    endloop
  endfacet
  facet normal -0.846737 -0.532012 -0
    outer loop
      vertex 3.57987 3.38555 1
      vertex 3.57987 3.38555 0
      vertex 4.05555 2.62847 1
    endloop
  endfacet
  facet normal -0.922056 -0.387056 0
    outer loop
      vertex 4.40811 1.78859 0
      vertex 4.40811 1.78859 1
      vertex 4.05555 2.62847 0
    endloop
  endfacet
  facet normal -0.922056 -0.387056 -0
    outer loop
      vertex 4.05555 2.62847 1
      vertex 4.05555 2.62847 0
      vertex 4.40811 1.78859 1
    endloop
  endfacet
  facet normal -0.972473 -0.233016 0
    outer loop
      vertex 4.62637 0.877736 0
      vertex 4.62637 0.877736 1
      vertex 4.40811 1.78859 0
    endloop
  endfacet
  facet normal -0.972473 -0.233016 -0
    outer loop
      vertex 4.40811 1.78859 1
      vertex 4.40811 1.78859 0
      vertex 4.62637 0.877736 1
    endloop
  endfacet
  facet normal -0.994157 -0.107941 0
    outer loop
      vertex 4.70471 0.156147 0
      vertex 4.70471 0.156147 1
      vertex 4.62637 0.877736 0
    endloop
  endfacet
  facet normal -0.994157 -0.107941 -0
    outer loop
      vertex 4.62637 0.877736 1
      vertex 4.62637 0.877736 0
      vertex 4.70471 0.156147 1
    endloop
  endfacet
  facet normal -1 0 0
    outer loop
      vertex 4.70471 -0.281538 0
      vertex 4.70471 -0.281538 1
      vertex 4.70471 0.156147 0
    endloop
  endfacet
  facet normal -1 -0 -0
    outer loop
      vertex 4.70471 0.156147 1
      vertex 4.70471 0.156147 0
      vertex 4.70471 -0.281538 1
    endloop
  endfacet
  facet normal -0.99252 0.122081 0
    outer loop
      vertex 4.63196 -0.873004 0
      vertex 4.63196 -0.873004 1
      vertex 4.70471 -0.281538 0
    endloop
  endfacet
  facet normal -0.99252 0.122081 0
    outer loop
      vertex 4.70471 -0.281538 1
      vertex 4.70471 -0.281538 0
      vertex 4.63196 -0.873004 1
    endloop
  endfacet
  facet normal -0.968735 0.248096 0
    outer loop
      vertex 4.4305 -1.65965 0
      vertex 4.4305 -1.65965 1
      vertex 4.63196 -0.873004 0
    endloop
  endfacet
  facet normal -0.968735 0.248096 0
    outer loop
      vertex 4.63196 -0.873004 1
      vertex 4.63196 -0.873004 0
      vertex 4.4305 -1.65965 1
    endloop
  endfacet
  facet normal -0.921542 0.388279 0
    outer loop
      vertex 4.11151 -2.41673 0
      vertex 4.11151 -2.41673 1
      vertex 4.4305 -1.65965 0
    endloop
  endfacet
  facet normal -0.921542 0.388279 0
    outer loop
      vertex 4.4305 -1.65965 1
      vertex 4.4305 -1.65965 0
      vertex 4.11151 -2.41673 1
    endloop
  endfacet
  facet normal -0.858885 0.512169 0
    outer loop
      vertex 3.6918 -3.12057 0
      vertex 3.6918 -3.12057 1
      vertex 4.11151 -2.41673 0
    endloop
  endfacet
  facet normal -0.858885 0.512169 0
    outer loop
      vertex 4.11151 -2.41673 1
      vertex 4.11151 -2.41673 0
      vertex 3.6918 -3.12057 1
    endloop
  endfacet
  facet normal -0.778589 0.627534 0
    outer loop
      vertex 3.17695 -3.75936 0
      vertex 3.17695 -3.75936 1
      vertex 3.6918 -3.12057 0
    endloop
  endfacet
  facet normal -0.778589 0.627534 0
    outer loop
      vertex 3.6918 -3.12057 1
      vertex 3.6918 -3.12057 0
      vertex 3.17695 -3.75936 1
    endloop
  endfacet
  facet normal -0.679457 0.733716 0
    outer loop
      vertex 2.58934 -4.30351 0
      vertex 2.58934 -4.30351 1
      vertex 3.17695 -3.75936 0
    endloop
  endfacet
  facet normal -0.679457 0.733716 0
    outer loop
      vertex 3.17695 -3.75936 1
      vertex 3.17695 -3.75936 0
      vertex 2.58934 -4.30351 1
    endloop
  endfacet
  facet normal -0.559035 0.829144 0
    outer loop
      vertex 1.94018 -4.74119 0
      vertex 1.94018 -4.74119 1
      vertex 2.58934 -4.30351 0
    endloop
  endfacet
  facet normal -0.559035 0.829144 0
    outer loop
      vertex 2.58934 -4.30351 1
      vertex 2.58934 -4.30351 0
      vertex 1.94018 -4.74119 1
    endloop
  endfacet
  facet normal -0.43456 0.900643 0
    outer loop
      vertex 1.42533 -4.98961 0
      vertex 1.42533 -4.98961 1
      vertex 1.94018 -4.74119 0
    endloop
  endfacet
  facet normal -0.43456 0.900643 0
    outer loop
      vertex 1.94018 -4.74119 1
      vertex 1.94018 -4.74119 0
      vertex 1.42533 -4.98961 1
    endloop
  endfacet
  facet normal -0.306886 0.951746 0
    outer loop
      vertex 1.09516 -5.09607 0
      vertex 1.09516 -5.09607 1
      vertex 1.42533 -4.98961 0
    endloop
  endfacet
  facet normal -0.306886 0.951746 0
    outer loop
      vertex 1.42533 -4.98961 1
      vertex 1.42533 -4.98961 0
      vertex 1.09516 -5.09607 1
    endloop
  endfacet
  facet normal -0.167669 0.985843 0
    outer loop
      vertex 0.608286 -5.17888 0
      vertex 0.608286 -5.17888 1
      vertex 1.09516 -5.09607 0
    endloop
  endfacet
  facet normal -0.167669 0.985843 0
    outer loop
      vertex 1.09516 -5.09607 1
      vertex 1.09516 -5.09607 0
      vertex 0.608286 -5.17888 1
    endloop
  endfacet
  facet normal -0.0758174 0.997122 0
    outer loop
      vertex -0.169588 -5.23802 0
      vertex -0.169588 -5.23802 1
      vertex 0.608286 -5.17888 0
    endloop
  endfacet
  facet normal -0.0758174 0.997122 0
    outer loop
      vertex 0.608286 -5.17888 1
      vertex 0.608286 -5.17888 0
      vertex -0.169588 -5.23802 1
    endloop
  endfacet
  facet normal 0.0231377 0.999732 -0
    outer loop
      vertex -0.936269 -5.22028 0
      vertex -0.936269 -5.22028 1
      vertex -0.169588 -5.23802 0
    endloop
  endfacet
  facet normal 0.0231377 0.999732 0
    outer loop
      vertex -0.169588 -5.23802 1
      vertex -0.169588 -5.23802 0
      vertex -0.936269 -5.22028 1
    endloop
  endfacet
endsolid OpenSCAD_Model
