solid OpenSCAD_Model
  facet normal 0 0 -1
    outer loop
      vertex 2.56142 -2.04404 0
      vertex 3.37695 -3.01554 0
      vertex 2.84436 -3.68912 0
    endloop
  endfacet
  facet normal -0 0 -1
    outer loop
      vertex 3.7764 -2.27073 0
      vertex 3.37695 -3.01554 0
      vertex 2.82772 -1.86917 0
    endloop
  endfacet
  facet normal -0 0 -1
    outer loop
      vertex 4.12591 -1.05959 0
      vertex 3.41579 -1.12435 0
      vertex 3.59332 -0.761658 0
    endloop
  endfacet
  facet normal 0 0 -1
    outer loop
      vertex 3.90955 -0.26943 0
      vertex 4.02605 -0.178756 0
      vertex 4.16475 -0.282383 0
    endloop
  endfacet
  facet normal 0 0 -1
    outer loop
      vertex 4.18694 -0.463731 0
      vertex 3.90955 -0.26943 0
      vertex 4.16475 -0.282383 0
    endloop
  endfacet
  facet normal 0 0 -1
    outer loop
      vertex 3.79859 -0.411917 0
      vertex 3.90955 -0.26943 0
      vertex 4.18694 -0.463731 0
    endloop
  endfacet
  facet normal -0 -0 -1
    outer loop
      vertex 4.10927 -0.185233 0
      vertex 4.16475 -0.282383 0
      vertex 4.02605 -0.178756 0
    endloop
  endfacet
  facet normal 0 0 -1
    outer loop
      vertex 4.17584 -0.729275 0
      vertex 3.79859 -0.411917 0
      vertex 4.18694 -0.463731 0
    endloop
  endfacet
  facet normal -0 0 -1
    outer loop
      vertex 4.17584 -0.729275 0
      vertex 3.59332 -0.761658 0
      vertex 3.79859 -0.411917 0
    endloop
  endfacet
  facet normal 0 0 -1
    outer loop
      vertex 4.17584 -0.729275 0
      vertex 4.12591 -1.05959 0
      vertex 3.59332 -0.761658 0
    endloop
  endfacet
  facet normal 0 0 -1
    outer loop
      vertex 4.12591 -1.05959 0
      vertex 3.99277 -1.67487 0
      vertex 3.41579 -1.12435 0
    endloop
  endfacet
  facet normal 0 -0 -1
    outer loop
      vertex 3.41579 -1.12435 0
      vertex 3.99277 -1.67487 0
      vertex 3.28819 -1.33808 0
    endloop
  endfacet
  facet normal 0 0 -1
    outer loop
      vertex 3.28819 -1.33808 0
      vertex 3.99277 -1.67487 0
      vertex 3.7764 -2.27073 0
    endloop
  endfacet
  facet normal 0 0 -1
    outer loop
      vertex 1.42411 -2.32254 0
      vertex 1.92342 -2.21244 0
      vertex 2.3506 -4.15544 0
    endloop
  endfacet
  facet normal 0 0 -1
    outer loop
      vertex 0.253515 -3.4171 0
      vertex 0.142558 -3.26166 0
      vertex 0.658508 -2.39378 0
    endloop
  endfacet
  facet normal 0 0 -1
    outer loop
      vertex 3.06627 -1.62953 0
      vertex 3.28819 -1.33808 0
      vertex 3.7764 -2.27073 0
    endloop
  endfacet
  facet normal 0 0 -1
    outer loop
      vertex 2.82772 -1.86917 0
      vertex 3.06627 -1.62953 0
      vertex 3.7764 -2.27073 0
    endloop
  endfacet
  facet normal 0 0 -1
    outer loop
      vertex 0.347828 -3.58549 0
      vertex 0.913709 -2.41321 0
      vertex 0.392211 -3.76036 0
    endloop
  endfacet
  facet normal 0 -0 -1
    outer loop
      vertex 2.82772 -1.86917 0
      vertex 3.37695 -3.01554 0
      vertex 2.66683 -1.9987 0
    endloop
  endfacet
  facet normal 0 -0 -1
    outer loop
      vertex 2.66683 -1.9987 0
      vertex 3.37695 -3.01554 0
      vertex 2.56142 -2.04404 0
    endloop
  endfacet
  facet normal 0 0 -1
    outer loop
      vertex 1.92342 -2.21244 0
      vertex 2.84436 -3.68912 0
      vertex 2.3506 -4.15544 0
    endloop
  endfacet
  facet normal 0 -0 -1
    outer loop
      vertex 2.56142 -2.04404 0
      vertex 2.84436 -3.68912 0
      vertex 1.92342 -2.21244 0
    endloop
  endfacet
  facet normal -0 0 -1
    outer loop
      vertex 2.3506 -4.15544 0
      vertex 2.02883 -4.40803 0
      vertex 1.42411 -2.32254 0
    endloop
  endfacet
  facet normal 0 0 -1
    outer loop
      vertex 0.347828 -3.58549 0
      vertex 0.253515 -3.4171 0
      vertex 0.913709 -2.41321 0
    endloop
  endfacet
  facet normal -0 0 -1
    outer loop
      vertex 0.658508 -2.39378 0
      vertex 0.142558 -3.26166 0
      vertex 0.375567 -2.32902 0
    endloop
  endfacet
  facet normal 0 0 -1
    outer loop
      vertex 0.375567 -2.32902 0
      vertex 0.142558 -3.26166 0
      vertex 0.0316006 -3.13212 0
    endloop
  endfacet
  facet normal 0 0 -1
    outer loop
      vertex 0.281254 -2.29016 0
      vertex 0.0316006 -3.13212 0
      vertex -0.218053 -2.91192 0
    endloop
  endfacet
  facet normal 0 0 -1
    outer loop
      vertex -0.218053 -2.91192 0
      vertex -0.512089 -2.84715 0
      vertex -0.32901 -2.24482 0
    endloop
  endfacet
  facet normal 0 0 -1
    outer loop
      vertex -1.03913 -2.6658 0
      vertex -0.789481 -3.00259 0
      vertex -1.00585 -3.29404 0
    endloop
  endfacet
  facet normal 0 0 -1
    outer loop
      vertex -0.589759 -2.38083 0
      vertex -0.32901 -2.24482 0
      vertex -0.512089 -2.84715 0
    endloop
  endfacet
  facet normal 0 0 -1
    outer loop
      vertex -1.03913 -2.6658 0
      vertex -0.589759 -2.38083 0
      vertex -0.512089 -2.84715 0
    endloop
  endfacet
  facet normal 0 -0 -1
    outer loop
      vertex -0.206957 -2.21891 0
      vertex 0.0205049 -2.23187 0
      vertex -0.218053 -2.91192 0
    endloop
  endfacet
  facet normal 0 0 -1
    outer loop
      vertex -2.2985 -3.45596 0
      vertex -2.33178 -3.4171 0
      vertex -2.27076 -3.39767 0
    endloop
  endfacet
  facet normal 0 0 -1
    outer loop
      vertex -0.89489 -5.17228 0
      vertex -0.856055 -4.69301 0
      vertex -0.634141 -4.86788 0
    endloop
  endfacet
  facet normal 0 0 -1
    outer loop
      vertex -2.90876 -3.98057 0
      vertex -2.91431 -3.64378 0
      vertex -2.78116 -3.79275 0
    endloop
  endfacet
  facet normal 0 -0 -1
    outer loop
      vertex -1.20002 -4.11658 0
      vertex -1.02249 -4.4728 0
      vertex -1.54954 -5.04275 0
    endloop
  endfacet
  facet normal -0 0 -1
    outer loop
      vertex -2.79226 -3.90933 0
      vertex -2.90876 -3.98057 0
      vertex -2.78116 -3.79275 0
    endloop
  endfacet
  facet normal 0 0 -1
    outer loop
      vertex -2.16535 -4.75777 0
      vertex -2.23192 -3.72798 0
      vertex -1.20002 -4.11658 0
    endloop
  endfacet
  facet normal 0 0 -1
    outer loop
      vertex -1.82138 -4.92617 0
      vertex -2.16535 -4.75777 0
      vertex -1.20002 -4.11658 0
    endloop
  endfacet
  facet normal 0 0 -1
    outer loop
      vertex -2.16535 -4.75777 0
      vertex -2.44829 -3.84456 0
      vertex -2.28185 -3.76036 0
    endloop
  endfacet
  facet normal -0 0 -1
    outer loop
      vertex -2.28185 -3.76036 0
      vertex -2.44829 -3.84456 0
      vertex -2.30959 -3.76036 0
    endloop
  endfacet
  facet normal 0 0 -1
    outer loop
      vertex -2.59808 -4.51813 0
      vertex -2.62582 -3.98705 0
      vertex -2.44829 -3.84456 0
    endloop
  endfacet
  facet normal 0 0 -1
    outer loop
      vertex -2.16535 -4.75777 0
      vertex -2.59808 -4.51813 0
      vertex -2.44829 -3.84456 0
    endloop
  endfacet
  facet normal 0 -0 -1
    outer loop
      vertex -2.62582 -3.98705 0
      vertex -2.59808 -4.51813 0
      vertex -2.91986 -4.28497 0
    endloop
  endfacet
  facet normal 0 -0 -1
    outer loop
      vertex -2.23192 -3.72798 0
      vertex -2.16535 -4.75777 0
      vertex -2.28185 -3.76036 0
    endloop
  endfacet
  facet normal 0 0 -1
    outer loop
      vertex -1.54954 -5.04275 0
      vertex -1.02249 -4.4728 0
      vertex -1.24995 -5.13342 0
    endloop
  endfacet
  facet normal 0 0 -1
    outer loop
      vertex -1.24995 -5.13342 0
      vertex -0.856055 -4.69301 0
      vertex -0.89489 -5.17228 0
    endloop
  endfacet
  facet normal 0 0 -1
    outer loop
      vertex -1.24995 -5.13342 0
      vertex -1.02249 -4.4728 0
      vertex -0.856055 -4.69301 0
    endloop
  endfacet
  facet normal -0 0 -1
    outer loop
      vertex -0.390036 -4.90674 0
      vertex -0.89489 -5.17228 0
      vertex -0.634141 -4.86788 0
    endloop
  endfacet
  facet normal 0 0 -1
    outer loop
      vertex 0.353376 -5.1399 0
      vertex 0.13701 -4.63472 0
      vertex 0.303445 -4.45984 0
    endloop
  endfacet
  facet normal 0 -0 -1
    outer loop
      vertex -0.390036 -4.90674 0
      vertex -0.201409 -5.17876 0
      vertex -0.89489 -5.17228 0
    endloop
  endfacet
  facet normal 0 -0 -1
    outer loop
      vertex -1.99336 -3.52073 0
      vertex -1.2444 -3.89637 0
      vertex -2.23192 -3.72798 0
    endloop
  endfacet
  facet normal 0 0 -1
    outer loop
      vertex -1.82138 -4.92617 0
      vertex -1.20002 -4.11658 0
      vertex -1.54954 -5.04275 0
    endloop
  endfacet
  facet normal 0 0 -1
    outer loop
      vertex -2.23192 -3.72798 0
      vertex -1.2444 -3.89637 0
      vertex -1.20002 -4.11658 0
    endloop
  endfacet
  facet normal 0 0 -1
    outer loop
      vertex -1.99336 -3.52073 0
      vertex -1.77145 -3.27461 0
      vertex -1.2444 -3.89637 0
    endloop
  endfacet
  facet normal 0 0 -1
    outer loop
      vertex -1.20002 -3.67617 0
      vertex -1.77145 -3.27461 0
      vertex -1.49406 -3.02202 0
    endloop
  endfacet
  facet normal 0 0 -1
    outer loop
      vertex -1.2444 -3.89637 0
      vertex -1.77145 -3.27461 0
      vertex -1.20002 -3.67617 0
    endloop
  endfacet
  facet normal 0 0 -1
    outer loop
      vertex -1.00585 -3.29404 0
      vertex -1.49406 -3.02202 0
      vertex -1.03913 -2.6658 0
    endloop
  endfacet
  facet normal 0 0 -1
    outer loop
      vertex -1.20002 -3.67617 0
      vertex -1.49406 -3.02202 0
      vertex -1.00585 -3.29404 0
    endloop
  endfacet
  facet normal 0 0 -1
    outer loop
      vertex -0.206957 -2.21891 0
      vertex -0.218053 -2.91192 0
      vertex -0.32901 -2.24482 0
    endloop
  endfacet
  facet normal -0 0 -1
    outer loop
      vertex -0.512089 -2.84715 0
      vertex -0.789481 -3.00259 0
      vertex -1.03913 -2.6658 0
    endloop
  endfacet
  facet normal 0 -0 -1
    outer loop
      vertex 0.0205049 -2.23187 0
      vertex 0.281254 -2.29016 0
      vertex -0.218053 -2.91192 0
    endloop
  endfacet
  facet normal 0 -0 -1
    outer loop
      vertex 0.281254 -2.29016 0
      vertex 0.375567 -2.32902 0
      vertex 0.0316006 -3.13212 0
    endloop
  endfacet
  facet normal -0 0 -1
    outer loop
      vertex 0.913709 -2.41321 0
      vertex 0.253515 -3.4171 0
      vertex 0.658508 -2.39378 0
    endloop
  endfacet
  facet normal 0 0 -1
    outer loop
      vertex 0.392211 -3.76036 0
      vertex 0.913709 -2.41321 0
      vertex 1.42411 -2.32254 0
    endloop
  endfacet
  facet normal 0 0 -1
    outer loop
      vertex 2.02883 -4.40803 0
      vertex 0.392211 -3.76036 0
      vertex 1.42411 -2.32254 0
    endloop
  endfacet
  facet normal -0 0 -1
    outer loop
      vertex 2.02883 -4.40803 0
      vertex 1.55726 -4.72539 0
      vertex 0.392211 -3.76036 0
    endloop
  endfacet
  facet normal 0 0 -1
    outer loop
      vertex 0.392211 -3.76036 0
      vertex 1.55726 -4.72539 0
      vertex 0.403307 -4.04534 0
    endloop
  endfacet
  facet normal 0 0 -1
    outer loop
      vertex 0.381115 -4.25259 0
      vertex 0.403307 -4.04534 0
      vertex 0.974735 -4.99741 0
    endloop
  endfacet
  facet normal 0 0 -1
    outer loop
      vertex 0.403307 -4.04534 0
      vertex 1.55726 -4.72539 0
      vertex 0.974735 -4.99741 0
    endloop
  endfacet
  facet normal 0 -0 -1
    outer loop
      vertex 0.381115 -4.25259 0
      vertex 0.974735 -4.99741 0
      vertex 0.303445 -4.45984 0
    endloop
  endfacet
  facet normal 0 0 -1
    outer loop
      vertex 0.303445 -4.45984 0
      vertex 0.974735 -4.99741 0
      vertex 0.353376 -5.1399 0
    endloop
  endfacet
  facet normal 0 -0 -1
    outer loop
      vertex 0.13701 -4.63472 0
      vertex 0.353376 -5.1399 0
      vertex -0.195861 -4.84845 0
    endloop
  endfacet
  facet normal 0 0 -1
    outer loop
      vertex -0.390036 -4.90674 0
      vertex -0.195861 -4.84845 0
      vertex -0.201409 -5.17876 0
    endloop
  endfacet
  facet normal 0 -0 -1
    outer loop
      vertex -0.195861 -4.84845 0
      vertex 0.353376 -5.1399 0
      vertex -0.201409 -5.17876 0
    endloop
  endfacet
  facet normal 0 -0 -1
    outer loop
      vertex -3.72984 -3.20984 0
      vertex -3.52457 -3.28109 0
      vertex -3.74649 -3.45596 0
    endloop
  endfacet
  facet normal 0 -0 -1
    outer loop
      vertex -2.27076 -3.39767 0
      vertex -2.20973 -3.46891 0
      vertex -2.2985 -3.45596 0
    endloop
  endfacet
  facet normal -0 0 -1
    outer loop
      vertex -2.90876 -3.98057 0
      vertex -2.99753 -4.00648 0
      vertex -2.91431 -3.64378 0
    endloop
  endfacet
  facet normal 0 0 -1
    outer loop
      vertex -3.14732 -3.97409 0
      vertex -3.38588 -3.83808 0
      vertex -3.18615 -3.45596 0
    endloop
  endfacet
  facet normal 0 0 -1
    outer loop
      vertex -3.81306 -3.2487 0
      vertex -3.72984 -3.20984 0
      vertex -3.79087 -3.35881 0
    endloop
  endfacet
  facet normal 0 0 -1
    outer loop
      vertex -3.79087 -3.35881 0
      vertex -3.72984 -3.20984 0
      vertex -3.74649 -3.45596 0
    endloop
  endfacet
  facet normal 0 0 -1
    outer loop
      vertex -3.74649 -3.45596 0
      vertex -3.52457 -3.28109 0
      vertex -3.61334 -3.63083 0
    endloop
  endfacet
  facet normal 0 0 -1
    outer loop
      vertex -3.61334 -3.63083 0
      vertex -3.52457 -3.28109 0
      vertex -3.18615 -3.45596 0
    endloop
  endfacet
  facet normal 0 0 -1
    outer loop
      vertex -3.38588 -3.83808 0
      vertex -3.61334 -3.63083 0
      vertex -3.18615 -3.45596 0
    endloop
  endfacet
  facet normal 0 0 -1
    outer loop
      vertex -3.14732 -3.97409 0
      vertex -3.18615 -3.45596 0
      vertex -2.91431 -3.64378 0
    endloop
  endfacet
  facet normal 0 0 -1
    outer loop
      vertex -2.99753 -4.00648 0
      vertex -3.14732 -3.97409 0
      vertex -2.91431 -3.64378 0
    endloop
  endfacet
  facet normal 0 0 -1
    outer loop
      vertex -2.20973 -3.46891 0
      vertex -2.1598 -3.41062 0
      vertex -2.14316 -3.44301 0
    endloop
  endfacet
  facet normal 0 0 -1
    outer loop
      vertex -2.20973 -3.46891 0
      vertex -2.27076 -3.39767 0
      vertex -2.1598 -3.41062 0
    endloop
  endfacet
  facet normal 0 -0 1
    outer loop
      vertex 2.84436 -3.68912 1
      vertex 3.37695 -3.01554 1
      vertex 2.56142 -2.04404 1
    endloop
  endfacet
  facet normal 0 0 1
    outer loop
      vertex 2.82772 -1.86917 1
      vertex 3.37695 -3.01554 1
      vertex 3.7764 -2.27073 1
    endloop
  endfacet
  facet normal 0 0 1
    outer loop
      vertex 3.59332 -0.761658 1
      vertex 3.41579 -1.12435 1
      vertex 4.12591 -1.05959 1
    endloop
  endfacet
  facet normal 0 0 1
    outer loop
      vertex 4.16475 -0.282383 1
      vertex 4.02605 -0.178756 1
      vertex 3.90955 -0.26943 1
    endloop
  endfacet
  facet normal 0 0 1
    outer loop
      vertex 4.16475 -0.282383 1
      vertex 3.90955 -0.26943 1
      vertex 4.18694 -0.463731 1
    endloop
  endfacet
  facet normal 0 0 1
    outer loop
      vertex 4.18694 -0.463731 1
      vertex 3.90955 -0.26943 1
      vertex 3.79859 -0.411917 1
    endloop
  endfacet
  facet normal 0 0 1
    outer loop
      vertex 4.02605 -0.178756 1
      vertex 4.16475 -0.282383 1
      vertex 4.10927 -0.185233 1
    endloop
  endfacet
  facet normal 0 0 1
    outer loop
      vertex 4.18694 -0.463731 1
      vertex 3.79859 -0.411917 1
      vertex 4.17584 -0.729275 1
    endloop
  endfacet
  facet normal 0 0 1
    outer loop
      vertex 3.79859 -0.411917 1
      vertex 3.59332 -0.761658 1
      vertex 4.17584 -0.729275 1
    endloop
  endfacet
  facet normal -0 0 1
    outer loop
      vertex 3.59332 -0.761658 1
      vertex 4.12591 -1.05959 1
      vertex 4.17584 -0.729275 1
    endloop
  endfacet
  facet normal -0 0 1
    outer loop
      vertex 3.41579 -1.12435 1
      vertex 3.99277 -1.67487 1
      vertex 4.12591 -1.05959 1
    endloop
  endfacet
  facet normal -0 0 1
    outer loop
      vertex 3.28819 -1.33808 1
      vertex 3.99277 -1.67487 1
      vertex 3.41579 -1.12435 1
    endloop
  endfacet
  facet normal 0 -0 1
    outer loop
      vertex 3.7764 -2.27073 1
      vertex 3.99277 -1.67487 1
      vertex 3.28819 -1.33808 1
    endloop
  endfacet
  facet normal 0 0 1
    outer loop
      vertex 2.3506 -4.15544 1
      vertex 1.92342 -2.21244 1
      vertex 1.42411 -2.32254 1
    endloop
  endfacet
  facet normal 0 0 1
    outer loop
      vertex 0.658508 -2.39378 1
      vertex 0.142558 -3.26166 1
      vertex 0.253515 -3.4171 1
    endloop
  endfacet
  facet normal 0 0 1
    outer loop
      vertex 3.7764 -2.27073 1
      vertex 3.28819 -1.33808 1
      vertex 3.06627 -1.62953 1
    endloop
  endfacet
  facet normal 0 0 1
    outer loop
      vertex 3.7764 -2.27073 1
      vertex 3.06627 -1.62953 1
      vertex 2.82772 -1.86917 1
    endloop
  endfacet
  facet normal 0 -0 1
    outer loop
      vertex 0.392211 -3.76036 1
      vertex 0.913709 -2.41321 1
      vertex 0.347828 -3.58549 1
    endloop
  endfacet
  facet normal -0 0 1
    outer loop
      vertex 2.66683 -1.9987 1
      vertex 3.37695 -3.01554 1
      vertex 2.82772 -1.86917 1
    endloop
  endfacet
  facet normal -0 0 1
    outer loop
      vertex 2.56142 -2.04404 1
      vertex 3.37695 -3.01554 1
      vertex 2.66683 -1.9987 1
    endloop
  endfacet
  facet normal 0 -0 1
    outer loop
      vertex 2.3506 -4.15544 1
      vertex 2.84436 -3.68912 1
      vertex 1.92342 -2.21244 1
    endloop
  endfacet
  facet normal -0 0 1
    outer loop
      vertex 1.92342 -2.21244 1
      vertex 2.84436 -3.68912 1
      vertex 2.56142 -2.04404 1
    endloop
  endfacet
  facet normal 0 0 1
    outer loop
      vertex 1.42411 -2.32254 1
      vertex 2.02883 -4.40803 1
      vertex 2.3506 -4.15544 1
    endloop
  endfacet
  facet normal 0 0 1
    outer loop
      vertex 0.913709 -2.41321 1
      vertex 0.253515 -3.4171 1
      vertex 0.347828 -3.58549 1
    endloop
  endfacet
  facet normal 0 0 1
    outer loop
      vertex 0.375567 -2.32902 1
      vertex 0.142558 -3.26166 1
      vertex 0.658508 -2.39378 1
    endloop
  endfacet
  facet normal -0 0 1
    outer loop
      vertex 0.0316006 -3.13212 1
      vertex 0.142558 -3.26166 1
      vertex 0.375567 -2.32902 1
    endloop
  endfacet
  facet normal -0 0 1
    outer loop
      vertex -0.218053 -2.91192 1
      vertex 0.0316006 -3.13212 1
      vertex 0.281254 -2.29016 1
    endloop
  endfacet
  facet normal 0 0 1
    outer loop
      vertex -0.32901 -2.24482 1
      vertex -0.512089 -2.84715 1
      vertex -0.218053 -2.91192 1
    endloop
  endfacet
  facet normal 0 -0 1
    outer loop
      vertex -1.00585 -3.29404 1
      vertex -0.789481 -3.00259 1
      vertex -1.03913 -2.6658 1
    endloop
  endfacet
  facet normal 0 -0 1
    outer loop
      vertex -0.512089 -2.84715 1
      vertex -0.32901 -2.24482 1
      vertex -0.589759 -2.38083 1
    endloop
  endfacet
  facet normal 0 0 1
    outer loop
      vertex -0.512089 -2.84715 1
      vertex -0.589759 -2.38083 1
      vertex -1.03913 -2.6658 1
    endloop
  endfacet
  facet normal 0 0 1
    outer loop
      vertex -0.218053 -2.91192 1
      vertex 0.0205049 -2.23187 1
      vertex -0.206957 -2.21891 1
    endloop
  endfacet
  facet normal 0 0 1
    outer loop
      vertex -2.27076 -3.39767 1
      vertex -2.33178 -3.4171 1
      vertex -2.2985 -3.45596 1
    endloop
  endfacet
  facet normal 0 0 1
    outer loop
      vertex -0.634141 -4.86788 1
      vertex -0.856055 -4.69301 1
      vertex -0.89489 -5.17228 1
    endloop
  endfacet
  facet normal 0 0 1
    outer loop
      vertex -2.78116 -3.79275 1
      vertex -2.91431 -3.64378 1
      vertex -2.90876 -3.98057 1
    endloop
  endfacet
  facet normal 0 0 1
    outer loop
      vertex -1.54954 -5.04275 1
      vertex -1.02249 -4.4728 1
      vertex -1.20002 -4.11658 1
    endloop
  endfacet
  facet normal 0 0 1
    outer loop
      vertex -2.78116 -3.79275 1
      vertex -2.90876 -3.98057 1
      vertex -2.79226 -3.90933 1
    endloop
  endfacet
  facet normal 0 0 1
    outer loop
      vertex -1.20002 -4.11658 1
      vertex -2.23192 -3.72798 1
      vertex -2.16535 -4.75777 1
    endloop
  endfacet
  facet normal 0 0 1
    outer loop
      vertex -1.20002 -4.11658 1
      vertex -2.16535 -4.75777 1
      vertex -1.82138 -4.92617 1
    endloop
  endfacet
  facet normal 0 0 1
    outer loop
      vertex -2.28185 -3.76036 1
      vertex -2.44829 -3.84456 1
      vertex -2.16535 -4.75777 1
    endloop
  endfacet
  facet normal -0 0 1
    outer loop
      vertex -2.30959 -3.76036 1
      vertex -2.44829 -3.84456 1
      vertex -2.28185 -3.76036 1
    endloop
  endfacet
  facet normal 0 0 1
    outer loop
      vertex -2.44829 -3.84456 1
      vertex -2.62582 -3.98705 1
      vertex -2.59808 -4.51813 1
    endloop
  endfacet
  facet normal 0 0 1
    outer loop
      vertex -2.44829 -3.84456 1
      vertex -2.59808 -4.51813 1
      vertex -2.16535 -4.75777 1
    endloop
  endfacet
  facet normal -0 0 1
    outer loop
      vertex -2.91986 -4.28497 1
      vertex -2.59808 -4.51813 1
      vertex -2.62582 -3.98705 1
    endloop
  endfacet
  facet normal -0 0 1
    outer loop
      vertex -2.28185 -3.76036 1
      vertex -2.16535 -4.75777 1
      vertex -2.23192 -3.72798 1
    endloop
  endfacet
  facet normal 0 -0 1
    outer loop
      vertex -1.24995 -5.13342 1
      vertex -1.02249 -4.4728 1
      vertex -1.54954 -5.04275 1
    endloop
  endfacet
  facet normal 0 -0 1
    outer loop
      vertex -0.89489 -5.17228 1
      vertex -0.856055 -4.69301 1
      vertex -1.24995 -5.13342 1
    endloop
  endfacet
  facet normal 0 0 1
    outer loop
      vertex -0.856055 -4.69301 1
      vertex -1.02249 -4.4728 1
      vertex -1.24995 -5.13342 1
    endloop
  endfacet
  facet normal 0 0 1
    outer loop
      vertex -0.634141 -4.86788 1
      vertex -0.89489 -5.17228 1
      vertex -0.390036 -4.90674 1
    endloop
  endfacet
  facet normal 0 0 1
    outer loop
      vertex 0.303445 -4.45984 1
      vertex 0.13701 -4.63472 1
      vertex 0.353376 -5.1399 1
    endloop
  endfacet
  facet normal -0 0 1
    outer loop
      vertex -0.89489 -5.17228 1
      vertex -0.201409 -5.17876 1
      vertex -0.390036 -4.90674 1
    endloop
  endfacet
  facet normal -0 0 1
    outer loop
      vertex -2.23192 -3.72798 1
      vertex -1.2444 -3.89637 1
      vertex -1.99336 -3.52073 1
    endloop
  endfacet
  facet normal 0 -0 1
    outer loop
      vertex -1.54954 -5.04275 1
      vertex -1.20002 -4.11658 1
      vertex -1.82138 -4.92617 1
    endloop
  endfacet
  facet normal 0 0 1
    outer loop
      vertex -1.20002 -4.11658 1
      vertex -1.2444 -3.89637 1
      vertex -2.23192 -3.72798 1
    endloop
  endfacet
  facet normal 0 0 1
    outer loop
      vertex -1.2444 -3.89637 1
      vertex -1.77145 -3.27461 1
      vertex -1.99336 -3.52073 1
    endloop
  endfacet
  facet normal 0 0 1
    outer loop
      vertex -1.49406 -3.02202 1
      vertex -1.77145 -3.27461 1
      vertex -1.20002 -3.67617 1
    endloop
  endfacet
  facet normal 0 0 1
    outer loop
      vertex -1.20002 -3.67617 1
      vertex -1.77145 -3.27461 1
      vertex -1.2444 -3.89637 1
    endloop
  endfacet
  facet normal 0 0 1
    outer loop
      vertex -1.03913 -2.6658 1
      vertex -1.49406 -3.02202 1
      vertex -1.00585 -3.29404 1
    endloop
  endfacet
  facet normal 0 0 1
    outer loop
      vertex -1.00585 -3.29404 1
      vertex -1.49406 -3.02202 1
      vertex -1.20002 -3.67617 1
    endloop
  endfacet
  facet normal -0 0 1
    outer loop
      vertex -0.32901 -2.24482 1
      vertex -0.218053 -2.91192 1
      vertex -0.206957 -2.21891 1
    endloop
  endfacet
  facet normal 0 0 1
    outer loop
      vertex -1.03913 -2.6658 1
      vertex -0.789481 -3.00259 1
      vertex -0.512089 -2.84715 1
    endloop
  endfacet
  facet normal 0 0 1
    outer loop
      vertex -0.218053 -2.91192 1
      vertex 0.281254 -2.29016 1
      vertex 0.0205049 -2.23187 1
    endloop
  endfacet
  facet normal 0 0 1
    outer loop
      vertex 0.0316006 -3.13212 1
      vertex 0.375567 -2.32902 1
      vertex 0.281254 -2.29016 1
    endloop
  endfacet
  facet normal 0 0 1
    outer loop
      vertex 0.658508 -2.39378 1
      vertex 0.253515 -3.4171 1
      vertex 0.913709 -2.41321 1
    endloop
  endfacet
  facet normal 0 0 1
    outer loop
      vertex 1.42411 -2.32254 1
      vertex 0.913709 -2.41321 1
      vertex 0.392211 -3.76036 1
    endloop
  endfacet
  facet normal 0 0 1
    outer loop
      vertex 1.42411 -2.32254 1
      vertex 0.392211 -3.76036 1
      vertex 2.02883 -4.40803 1
    endloop
  endfacet
  facet normal 0 0 1
    outer loop
      vertex 0.392211 -3.76036 1
      vertex 1.55726 -4.72539 1
      vertex 2.02883 -4.40803 1
    endloop
  endfacet
  facet normal -0 -0 1
    outer loop
      vertex 0.403307 -4.04534 1
      vertex 1.55726 -4.72539 1
      vertex 0.392211 -3.76036 1
    endloop
  endfacet
  facet normal 0 0 1
    outer loop
      vertex 0.974735 -4.99741 1
      vertex 0.403307 -4.04534 1
      vertex 0.381115 -4.25259 1
    endloop
  endfacet
  facet normal 0 -0 1
    outer loop
      vertex 0.974735 -4.99741 1
      vertex 1.55726 -4.72539 1
      vertex 0.403307 -4.04534 1
    endloop
  endfacet
  facet normal -0 0 1
    outer loop
      vertex 0.303445 -4.45984 1
      vertex 0.974735 -4.99741 1
      vertex 0.381115 -4.25259 1
    endloop
  endfacet
  facet normal 0 -0 1
    outer loop
      vertex 0.353376 -5.1399 1
      vertex 0.974735 -4.99741 1
      vertex 0.303445 -4.45984 1
    endloop
  endfacet
  facet normal -0 0 1
    outer loop
      vertex -0.195861 -4.84845 1
      vertex 0.353376 -5.1399 1
      vertex 0.13701 -4.63472 1
    endloop
  endfacet
  facet normal 0 -0 1
    outer loop
      vertex -0.201409 -5.17876 1
      vertex -0.195861 -4.84845 1
      vertex -0.390036 -4.90674 1
    endloop
  endfacet
  facet normal 0 0 1
    outer loop
      vertex -0.201409 -5.17876 1
      vertex 0.353376 -5.1399 1
      vertex -0.195861 -4.84845 1
    endloop
  endfacet
  facet normal 0 0 1
    outer loop
      vertex -3.74649 -3.45596 1
      vertex -3.52457 -3.28109 1
      vertex -3.72984 -3.20984 1
    endloop
  endfacet
  facet normal -0 0 1
    outer loop
      vertex -2.2985 -3.45596 1
      vertex -2.20973 -3.46891 1
      vertex -2.27076 -3.39767 1
    endloop
  endfacet
  facet normal 0 0 1
    outer loop
      vertex -2.91431 -3.64378 1
      vertex -2.99753 -4.00648 1
      vertex -2.90876 -3.98057 1
    endloop
  endfacet
  facet normal 0 0 1
    outer loop
      vertex -3.18615 -3.45596 1
      vertex -3.38588 -3.83808 1
      vertex -3.14732 -3.97409 1
    endloop
  endfacet
  facet normal 0 -0 1
    outer loop
      vertex -3.79087 -3.35881 1
      vertex -3.72984 -3.20984 1
      vertex -3.81306 -3.2487 1
    endloop
  endfacet
  facet normal 0 -0 1
    outer loop
      vertex -3.74649 -3.45596 1
      vertex -3.72984 -3.20984 1
      vertex -3.79087 -3.35881 1
    endloop
  endfacet
  facet normal 0 -0 1
    outer loop
      vertex -3.61334 -3.63083 1
      vertex -3.52457 -3.28109 1
      vertex -3.74649 -3.45596 1
    endloop
  endfacet
  facet normal 0 0 1
    outer loop
      vertex -3.18615 -3.45596 1
      vertex -3.52457 -3.28109 1
      vertex -3.61334 -3.63083 1
    endloop
  endfacet
  facet normal 0 0 1
    outer loop
      vertex -3.18615 -3.45596 1
      vertex -3.61334 -3.63083 1
      vertex -3.38588 -3.83808 1
    endloop
  endfacet
  facet normal 0 0 1
    outer loop
      vertex -2.91431 -3.64378 1
      vertex -3.18615 -3.45596 1
      vertex -3.14732 -3.97409 1
    endloop
  endfacet
  facet normal 0 0 1
    outer loop
      vertex -2.91431 -3.64378 1
      vertex -3.14732 -3.97409 1
      vertex -2.99753 -4.00648 1
    endloop
  endfacet
  facet normal 0 0 1
    outer loop
      vertex -2.14316 -3.44301 1
      vertex -2.1598 -3.41062 1
      vertex -2.20973 -3.46891 1
    endloop
  endfacet
  facet normal 0 0 1
    outer loop
      vertex -2.1598 -3.41062 1
      vertex -2.27076 -3.39767 1
      vertex -2.20973 -3.46891 1
    endloop
  endfacet
  facet normal 0.223514 -0.974701 0
    outer loop
      vertex 0.974735 -4.99741 0
      vertex 0.353376 -5.1399 1
      vertex 0.353376 -5.1399 0
    endloop
  endfacet
  facet normal 0.223514 -0.974701 0
    outer loop
      vertex 0.974735 -4.99741 0
      vertex 0.974735 -4.99741 1
      vertex 0.353376 -5.1399 1
    endloop
  endfacet
  facet normal 0.42311 -0.906078 0
    outer loop
      vertex 1.55726 -4.72539 0
      vertex 0.974735 -4.99741 1
      vertex 0.974735 -4.99741 0
    endloop
  endfacet
  facet normal 0.42311 -0.906078 0
    outer loop
      vertex 1.55726 -4.72539 0
      vertex 1.55726 -4.72539 1
      vertex 0.974735 -4.99741 1
    endloop
  endfacet
  facet normal 0.558324 -0.829623 0
    outer loop
      vertex 2.02883 -4.40803 0
      vertex 1.55726 -4.72539 1
      vertex 1.55726 -4.72539 0
    endloop
  endfacet
  facet normal 0.558324 -0.829623 0
    outer loop
      vertex 2.02883 -4.40803 0
      vertex 2.02883 -4.40803 1
      vertex 1.55726 -4.72539 1
    endloop
  endfacet
  facet normal 0.61747 -0.786595 0
    outer loop
      vertex 2.3506 -4.15544 0
      vertex 2.02883 -4.40803 1
      vertex 2.02883 -4.40803 0
    endloop
  endfacet
  facet normal 0.61747 -0.786595 0
    outer loop
      vertex 2.3506 -4.15544 0
      vertex 2.3506 -4.15544 1
      vertex 2.02883 -4.40803 1
    endloop
  endfacet
  facet normal 0.686619 -0.727018 0
    outer loop
      vertex 2.84436 -3.68912 0
      vertex 2.3506 -4.15544 1
      vertex 2.3506 -4.15544 0
    endloop
  endfacet
  facet normal 0.686619 -0.727018 0
    outer loop
      vertex 2.84436 -3.68912 0
      vertex 2.84436 -3.68912 1
      vertex 2.3506 -4.15544 1
    endloop
  endfacet
  facet normal 0.784416 -0.620235 0
    outer loop
      vertex 3.37695 -3.01554 0
      vertex 2.84436 -3.68912 1
      vertex 2.84436 -3.68912 0
    endloop
  endfacet
  facet normal 0.784416 -0.620235 0
    outer loop
      vertex 3.37695 -3.01554 0
      vertex 3.37695 -3.01554 1
      vertex 2.84436 -3.68912 1
    endloop
  endfacet
  facet normal 0.881266 -0.472621 0
    outer loop
      vertex 3.7764 -2.27073 0
      vertex 3.37695 -3.01554 1
      vertex 3.37695 -3.01554 0
    endloop
  endfacet
  facet normal 0.881266 -0.472621 0
    outer loop
      vertex 3.7764 -2.27073 0
      vertex 3.7764 -2.27073 1
      vertex 3.37695 -3.01554 1
    endloop
  endfacet
  facet normal 0.93995 -0.341313 0
    outer loop
      vertex 3.99277 -1.67487 0
      vertex 3.7764 -2.27073 1
      vertex 3.7764 -2.27073 0
    endloop
  endfacet
  facet normal 0.93995 -0.341313 0
    outer loop
      vertex 3.99277 -1.67487 0
      vertex 3.99277 -1.67487 1
      vertex 3.7764 -2.27073 1
    endloop
  endfacet
  facet normal 0.977377 -0.211506 0
    outer loop
      vertex 4.12591 -1.05959 0
      vertex 3.99277 -1.67487 1
      vertex 3.99277 -1.67487 0
    endloop
  endfacet
  facet normal 0.977377 -0.211506 0
    outer loop
      vertex 4.12591 -1.05959 0
      vertex 4.12591 -1.05959 1
      vertex 3.99277 -1.67487 1
    endloop
  endfacet
  facet normal 0.988767 -0.149465 0
    outer loop
      vertex 4.17584 -0.729275 0
      vertex 4.12591 -1.05959 1
      vertex 4.12591 -1.05959 0
    endloop
  endfacet
  facet normal 0.988767 -0.149465 0
    outer loop
      vertex 4.17584 -0.729275 0
      vertex 4.17584 -0.729275 1
      vertex 4.12591 -1.05959 1
    endloop
  endfacet
  facet normal 0.999128 -0.0417484 0
    outer loop
      vertex 4.18694 -0.463731 0
      vertex 4.17584 -0.729275 1
      vertex 4.17584 -0.729275 0
    endloop
  endfacet
  facet normal 0.999128 -0.0417484 0
    outer loop
      vertex 4.18694 -0.463731 0
      vertex 4.18694 -0.463731 1
      vertex 4.17584 -0.729275 1
    endloop
  endfacet
  facet normal 0.992596 0.121464 0
    outer loop
      vertex 4.16475 -0.282383 0
      vertex 4.18694 -0.463731 1
      vertex 4.18694 -0.463731 0
    endloop
  endfacet
  facet normal 0.992596 0.121464 -0
    outer loop
      vertex 4.16475 -0.282383 0
      vertex 4.16475 -0.282383 1
      vertex 4.18694 -0.463731 1
    endloop
  endfacet
  facet normal 0.868381 0.495897 0
    outer loop
      vertex 4.10927 -0.185233 0
      vertex 4.16475 -0.282383 1
      vertex 4.16475 -0.282383 0
    endloop
  endfacet
  facet normal 0.868381 0.495897 -0
    outer loop
      vertex 4.10927 -0.185233 0
      vertex 4.10927 -0.185233 1
      vertex 4.16475 -0.282383 1
    endloop
  endfacet
  facet normal 0.0775935 0.996985 0
    outer loop
      vertex 4.02605 -0.178756 0
      vertex 4.10927 -0.185233 1
      vertex 4.10927 -0.185233 0
    endloop
  endfacet
  facet normal 0.0775935 0.996985 -0
    outer loop
      vertex 4.02605 -0.178756 0
      vertex 4.02605 -0.178756 1
      vertex 4.10927 -0.185233 1
    endloop
  endfacet
  facet normal -0.614188 0.78916 0
    outer loop
      vertex 3.90955 -0.26943 0
      vertex 4.02605 -0.178756 1
      vertex 4.02605 -0.178756 0
    endloop
  endfacet
  facet normal -0.614188 0.78916 0
    outer loop
      vertex 3.90955 -0.26943 0
      vertex 3.90955 -0.26943 1
      vertex 4.02605 -0.178756 1
    endloop
  endfacet
  facet normal -0.788993 0.614402 0
    outer loop
      vertex 3.79859 -0.411917 0
      vertex 3.90955 -0.26943 1
      vertex 3.90955 -0.26943 0
    endloop
  endfacet
  facet normal -0.788993 0.614402 0
    outer loop
      vertex 3.79859 -0.411917 0
      vertex 3.79859 -0.411917 1
      vertex 3.90955 -0.26943 1
    endloop
  endfacet
  facet normal -0.862429 0.506178 0
    outer loop
      vertex 3.59332 -0.761658 0
      vertex 3.79859 -0.411917 1
      vertex 3.79859 -0.411917 0
    endloop
  endfacet
  facet normal -0.862429 0.506178 0
    outer loop
      vertex 3.59332 -0.761658 0
      vertex 3.59332 -0.761658 1
      vertex 3.79859 -0.411917 1
    endloop
  endfacet
  facet normal -0.898175 0.439638 0
    outer loop
      vertex 3.41579 -1.12435 0
      vertex 3.59332 -0.761658 1
      vertex 3.59332 -0.761658 0
    endloop
  endfacet
  facet normal -0.898175 0.439638 0
    outer loop
      vertex 3.41579 -1.12435 0
      vertex 3.41579 -1.12435 1
      vertex 3.59332 -0.761658 1
    endloop
  endfacet
  facet normal -0.858621 0.512611 0
    outer loop
      vertex 3.28819 -1.33808 0
      vertex 3.41579 -1.12435 1
      vertex 3.41579 -1.12435 0
    endloop
  endfacet
  facet normal -0.858621 0.512611 0
    outer loop
      vertex 3.28819 -1.33808 0
      vertex 3.28819 -1.33808 1
      vertex 3.41579 -1.12435 1
    endloop
  endfacet
  facet normal -0.795621 0.605795 0
    outer loop
      vertex 3.06627 -1.62953 0
      vertex 3.28819 -1.33808 1
      vertex 3.28819 -1.33808 0
    endloop
  endfacet
  facet normal -0.795621 0.605795 0
    outer loop
      vertex 3.06627 -1.62953 0
      vertex 3.06627 -1.62953 1
      vertex 3.28819 -1.33808 1
    endloop
  endfacet
  facet normal -0.708702 0.705508 0
    outer loop
      vertex 2.82772 -1.86917 0
      vertex 3.06627 -1.62953 1
      vertex 3.06627 -1.62953 0
    endloop
  endfacet
  facet normal -0.708702 0.705508 0
    outer loop
      vertex 2.82772 -1.86917 0
      vertex 2.82772 -1.86917 1
      vertex 3.06627 -1.62953 1
    endloop
  endfacet
  facet normal -0.627123 0.77892 0
    outer loop
      vertex 2.66683 -1.9987 0
      vertex 2.82772 -1.86917 1
      vertex 2.82772 -1.86917 0
    endloop
  endfacet
  facet normal -0.627123 0.77892 0
    outer loop
      vertex 2.66683 -1.9987 0
      vertex 2.66683 -1.9987 1
      vertex 2.82772 -1.86917 1
    endloop
  endfacet
  facet normal -0.395108 0.918635 0
    outer loop
      vertex 2.56142 -2.04404 0
      vertex 2.66683 -1.9987 1
      vertex 2.66683 -1.9987 0
    endloop
  endfacet
  facet normal -0.395108 0.918635 0
    outer loop
      vertex 2.56142 -2.04404 0
      vertex 2.56142 -2.04404 1
      vertex 2.66683 -1.9987 1
    endloop
  endfacet
  facet normal -0.2552 0.966888 0
    outer loop
      vertex 1.92342 -2.21244 0
      vertex 2.56142 -2.04404 1
      vertex 2.56142 -2.04404 0
    endloop
  endfacet
  facet normal -0.2552 0.966888 0
    outer loop
      vertex 1.92342 -2.21244 0
      vertex 1.92342 -2.21244 1
      vertex 2.56142 -2.04404 1
    endloop
  endfacet
  facet normal -0.21534 0.976539 0
    outer loop
      vertex 1.42411 -2.32254 0
      vertex 1.92342 -2.21244 1
      vertex 1.92342 -2.21244 0
    endloop
  endfacet
  facet normal -0.21534 0.976539 0
    outer loop
      vertex 1.42411 -2.32254 0
      vertex 1.42411 -2.32254 1
      vertex 1.92342 -2.21244 1
    endloop
  endfacet
  facet normal -0.174913 0.984584 0
    outer loop
      vertex 0.913709 -2.41321 0
      vertex 1.42411 -2.32254 1
      vertex 1.42411 -2.32254 0
    endloop
  endfacet
  facet normal -0.174913 0.984584 0
    outer loop
      vertex 0.913709 -2.41321 0
      vertex 0.913709 -2.41321 1
      vertex 1.42411 -2.32254 1
    endloop
  endfacet
  facet normal 0.0759165 0.997114 0
    outer loop
      vertex 0.658508 -2.39378 0
      vertex 0.913709 -2.41321 1
      vertex 0.913709 -2.41321 0
    endloop
  endfacet
  facet normal 0.0759165 0.997114 -0
    outer loop
      vertex 0.658508 -2.39378 0
      vertex 0.658508 -2.39378 1
      vertex 0.913709 -2.41321 1
    endloop
  endfacet
  facet normal 0.223135 0.974788 0
    outer loop
      vertex 0.375567 -2.32902 0
      vertex 0.658508 -2.39378 1
      vertex 0.658508 -2.39378 0
    endloop
  endfacet
  facet normal 0.223135 0.974788 -0
    outer loop
      vertex 0.375567 -2.32902 0
      vertex 0.375567 -2.32902 1
      vertex 0.658508 -2.39378 1
    endloop
  endfacet
  facet normal 0.380961 0.924591 0
    outer loop
      vertex 0.281254 -2.29016 0
      vertex 0.375567 -2.32902 1
      vertex 0.375567 -2.32902 0
    endloop
  endfacet
  facet normal 0.380961 0.924591 -0
    outer loop
      vertex 0.281254 -2.29016 0
      vertex 0.281254 -2.29016 1
      vertex 0.375567 -2.32902 1
    endloop
  endfacet
  facet normal 0.218164 0.975912 0
    outer loop
      vertex 0.0205049 -2.23187 0
      vertex 0.281254 -2.29016 1
      vertex 0.281254 -2.29016 0
    endloop
  endfacet
  facet normal 0.218164 0.975912 -0
    outer loop
      vertex 0.0205049 -2.23187 0
      vertex 0.0205049 -2.23187 1
      vertex 0.281254 -2.29016 1
    endloop
  endfacet
  facet normal 0.0568553 0.998382 0
    outer loop
      vertex -0.206957 -2.21891 0
      vertex 0.0205049 -2.23187 1
      vertex 0.0205049 -2.23187 0
    endloop
  endfacet
  facet normal 0.0568553 0.998382 -0
    outer loop
      vertex -0.206957 -2.21891 0
      vertex -0.206957 -2.21891 1
      vertex 0.0205049 -2.23187 1
    endloop
  endfacet
  facet normal -0.207633 0.978207 0
    outer loop
      vertex -0.32901 -2.24482 0
      vertex -0.206957 -2.21891 1
      vertex -0.206957 -2.21891 0
    endloop
  endfacet
  facet normal -0.207633 0.978207 0
    outer loop
      vertex -0.32901 -2.24482 0
      vertex -0.32901 -2.24482 1
      vertex -0.206957 -2.21891 1
    endloop
  endfacet
  facet normal -0.462479 0.88663 0
    outer loop
      vertex -0.589759 -2.38083 0
      vertex -0.32901 -2.24482 1
      vertex -0.32901 -2.24482 0
    endloop
  endfacet
  facet normal -0.462479 0.88663 0
    outer loop
      vertex -0.589759 -2.38083 0
      vertex -0.589759 -2.38083 1
      vertex -0.32901 -2.24482 1
    endloop
  endfacet
  facet normal -0.535547 0.844505 0
    outer loop
      vertex -1.03913 -2.6658 0
      vertex -0.589759 -2.38083 1
      vertex -0.589759 -2.38083 0
    endloop
  endfacet
  facet normal -0.535547 0.844505 0
    outer loop
      vertex -1.03913 -2.6658 0
      vertex -1.03913 -2.6658 1
      vertex -0.589759 -2.38083 1
    endloop
  endfacet
  facet normal -0.616513 0.787345 0
    outer loop
      vertex -1.49406 -3.02202 0
      vertex -1.03913 -2.6658 1
      vertex -1.03913 -2.6658 0
    endloop
  endfacet
  facet normal -0.616513 0.787345 0
    outer loop
      vertex -1.49406 -3.02202 0
      vertex -1.49406 -3.02202 1
      vertex -1.03913 -2.6658 1
    endloop
  endfacet
  facet normal -0.673279 0.739388 0
    outer loop
      vertex -1.77145 -3.27461 0
      vertex -1.49406 -3.02202 1
      vertex -1.49406 -3.02202 0
    endloop
  endfacet
  facet normal -0.673279 0.739388 0
    outer loop
      vertex -1.77145 -3.27461 0
      vertex -1.77145 -3.27461 1
      vertex -1.49406 -3.02202 1
    endloop
  endfacet
  facet normal -0.742677 0.66965 0
    outer loop
      vertex -1.99336 -3.52073 0
      vertex -1.77145 -3.27461 1
      vertex -1.77145 -3.27461 0
    endloop
  endfacet
  facet normal -0.742677 0.66965 0
    outer loop
      vertex -1.99336 -3.52073 0
      vertex -1.99336 -3.52073 1
      vertex -1.77145 -3.27461 1
    endloop
  endfacet
  facet normal -0.655841 0.754899 0
    outer loop
      vertex -2.23192 -3.72798 0
      vertex -1.99336 -3.52073 1
      vertex -1.99336 -3.52073 0
    endloop
  endfacet
  facet normal -0.655841 0.754899 0
    outer loop
      vertex -2.23192 -3.72798 0
      vertex -2.23192 -3.72798 1
      vertex -1.99336 -3.52073 1
    endloop
  endfacet
  facet normal -0.544143 0.838992 0
    outer loop
      vertex -2.28185 -3.76036 0
      vertex -2.23192 -3.72798 1
      vertex -2.23192 -3.72798 0
    endloop
  endfacet
  facet normal -0.544143 0.838992 0
    outer loop
      vertex -2.28185 -3.76036 0
      vertex -2.28185 -3.76036 1
      vertex -2.23192 -3.72798 1
    endloop
  endfacet
  facet normal 0 1 0
    outer loop
      vertex -2.30959 -3.76036 0
      vertex -2.28185 -3.76036 1
      vertex -2.28185 -3.76036 0
    endloop
  endfacet
  facet normal 0 1 0
    outer loop
      vertex -2.30959 -3.76036 0
      vertex -2.30959 -3.76036 1
      vertex -2.28185 -3.76036 1
    endloop
  endfacet
  facet normal -0.518926 0.854819 0
    outer loop
      vertex -2.44829 -3.84456 0
      vertex -2.30959 -3.76036 1
      vertex -2.30959 -3.76036 0
    endloop
  endfacet
  facet normal -0.518926 0.854819 0
    outer loop
      vertex -2.44829 -3.84456 0
      vertex -2.44829 -3.84456 1
      vertex -2.30959 -3.76036 1
    endloop
  endfacet
  facet normal -0.625932 0.779878 0
    outer loop
      vertex -2.62582 -3.98705 0
      vertex -2.44829 -3.84456 1
      vertex -2.44829 -3.84456 0
    endloop
  endfacet
  facet normal -0.625932 0.779878 0
    outer loop
      vertex -2.62582 -3.98705 0
      vertex -2.62582 -3.98705 1
      vertex -2.44829 -3.84456 1
    endloop
  endfacet
  facet normal -0.71174 0.702443 0
    outer loop
      vertex -2.91986 -4.28497 0
      vertex -2.62582 -3.98705 1
      vertex -2.62582 -3.98705 0
    endloop
  endfacet
  facet normal -0.71174 0.702443 0
    outer loop
      vertex -2.91986 -4.28497 0
      vertex -2.91986 -4.28497 1
      vertex -2.62582 -3.98705 1
    endloop
  endfacet
  facet normal -0.586759 -0.809762 0
    outer loop
      vertex -2.59808 -4.51813 0
      vertex -2.91986 -4.28497 1
      vertex -2.91986 -4.28497 0
    endloop
  endfacet
  facet normal -0.586759 -0.809762 0
    outer loop
      vertex -2.59808 -4.51813 0
      vertex -2.59808 -4.51813 1
      vertex -2.91986 -4.28497 1
    endloop
  endfacet
  facet normal -0.484454 -0.874817 0
    outer loop
      vertex -2.16535 -4.75777 0
      vertex -2.59808 -4.51813 1
      vertex -2.59808 -4.51813 0
    endloop
  endfacet
  facet normal -0.484454 -0.874817 0
    outer loop
      vertex -2.16535 -4.75777 0
      vertex -2.16535 -4.75777 1
      vertex -2.59808 -4.51813 1
    endloop
  endfacet
  facet normal -0.4397 -0.898145 0
    outer loop
      vertex -1.82138 -4.92617 0
      vertex -2.16535 -4.75777 1
      vertex -2.16535 -4.75777 0
    endloop
  endfacet
  facet normal -0.4397 -0.898145 0
    outer loop
      vertex -1.82138 -4.92617 0
      vertex -1.82138 -4.92617 1
      vertex -2.16535 -4.75777 1
    endloop
  endfacet
  facet normal -0.394135 -0.919053 0
    outer loop
      vertex -1.54954 -5.04275 0
      vertex -1.82138 -4.92617 1
      vertex -1.82138 -4.92617 0
    endloop
  endfacet
  facet normal -0.394135 -0.919053 0
    outer loop
      vertex -1.54954 -5.04275 0
      vertex -1.54954 -5.04275 1
      vertex -1.82138 -4.92617 1
    endloop
  endfacet
  facet normal -0.289687 -0.957121 0
    outer loop
      vertex -1.24995 -5.13342 0
      vertex -1.54954 -5.04275 1
      vertex -1.54954 -5.04275 0
    endloop
  endfacet
  facet normal -0.289687 -0.957121 0
    outer loop
      vertex -1.24995 -5.13342 0
      vertex -1.24995 -5.13342 1
      vertex -1.54954 -5.04275 1
    endloop
  endfacet
  facet normal -0.108796 -0.994064 0
    outer loop
      vertex -0.89489 -5.17228 0
      vertex -1.24995 -5.13342 1
      vertex -1.24995 -5.13342 0
    endloop
  endfacet
  facet normal -0.108796 -0.994064 0
    outer loop
      vertex -0.89489 -5.17228 0
      vertex -0.89489 -5.17228 1
      vertex -1.24995 -5.13342 1
    endloop
  endfacet
  facet normal -0.00933897 -0.999956 0
    outer loop
      vertex -0.201409 -5.17876 0
      vertex -0.89489 -5.17228 1
      vertex -0.89489 -5.17228 0
    endloop
  endfacet
  facet normal -0.00933897 -0.999956 0
    outer loop
      vertex -0.201409 -5.17876 0
      vertex -0.201409 -5.17876 1
      vertex -0.89489 -5.17228 1
    endloop
  endfacet
  facet normal 0.0698741 -0.997556 0
    outer loop
      vertex 0.353376 -5.1399 0
      vertex -0.201409 -5.17876 1
      vertex -0.201409 -5.17876 0
    endloop
  endfacet
  facet normal 0.0698741 -0.997556 0
    outer loop
      vertex 0.353376 -5.1399 0
      vertex 0.353376 -5.1399 1
      vertex -0.201409 -5.17876 1
    endloop
  endfacet
  facet normal 0.618936 0.785442 -0
    outer loop
      vertex -0.856055 -4.69301 0
      vertex -0.856055 -4.69301 1
      vertex -0.634141 -4.86788 0
    endloop
  endfacet
  facet normal 0.618936 0.785442 0
    outer loop
      vertex -0.634141 -4.86788 1
      vertex -0.634141 -4.86788 0
      vertex -0.856055 -4.69301 1
    endloop
  endfacet
  facet normal 0.797769 0.602964 -0
    outer loop
      vertex -1.02249 -4.4728 0
      vertex -1.02249 -4.4728 1
      vertex -0.856055 -4.69301 0
    endloop
  endfacet
  facet normal 0.797769 0.602964 0
    outer loop
      vertex -0.856055 -4.69301 1
      vertex -0.856055 -4.69301 0
      vertex -1.02249 -4.4728 1
    endloop
  endfacet
  facet normal 0.895007 0.446052 -0
    outer loop
      vertex -1.20002 -4.11658 0
      vertex -1.20002 -4.11658 1
      vertex -1.02249 -4.4728 0
    endloop
  endfacet
  facet normal 0.895007 0.446052 0
    outer loop
      vertex -1.02249 -4.4728 1
      vertex -1.02249 -4.4728 0
      vertex -1.20002 -4.11658 1
    endloop
  endfacet
  facet normal 0.980287 0.197577 -0
    outer loop
      vertex -1.2444 -3.89637 0
      vertex -1.2444 -3.89637 1
      vertex -1.20002 -4.11658 0
    endloop
  endfacet
  facet normal 0.980287 0.197577 0
    outer loop
      vertex -1.20002 -4.11658 1
      vertex -1.20002 -4.11658 0
      vertex -1.2444 -3.89637 1
    endloop
  endfacet
  facet normal 0.980287 -0.197577 0
    outer loop
      vertex -1.20002 -3.67617 0
      vertex -1.20002 -3.67617 1
      vertex -1.2444 -3.89637 0
    endloop
  endfacet
  facet normal 0.980287 -0.197577 0
    outer loop
      vertex -1.2444 -3.89637 1
      vertex -1.2444 -3.89637 0
      vertex -1.20002 -3.67617 1
    endloop
  endfacet
  facet normal 0.891504 -0.453014 0
    outer loop
      vertex -1.00585 -3.29404 0
      vertex -1.00585 -3.29404 1
      vertex -1.20002 -3.67617 0
    endloop
  endfacet
  facet normal 0.891504 -0.453014 0
    outer loop
      vertex -1.20002 -3.67617 1
      vertex -1.20002 -3.67617 0
      vertex -1.00585 -3.29404 1
    endloop
  endfacet
  facet normal 0.802929 -0.596075 0
    outer loop
      vertex -0.789481 -3.00259 0
      vertex -0.789481 -3.00259 1
      vertex -1.00585 -3.29404 0
    endloop
  endfacet
  facet normal 0.802929 -0.596075 0
    outer loop
      vertex -1.00585 -3.29404 1
      vertex -1.00585 -3.29404 0
      vertex -0.789481 -3.00259 1
    endloop
  endfacet
  facet normal 0.488844 -0.872371 0
    outer loop
      vertex -0.512089 -2.84715 0
      vertex -0.512089 -2.84715 1
      vertex -0.789481 -3.00259 0
    endloop
  endfacet
  facet normal 0.488844 -0.872371 0
    outer loop
      vertex -0.789481 -3.00259 1
      vertex -0.789481 -3.00259 0
      vertex -0.512089 -2.84715 1
    endloop
  endfacet
  facet normal -0.215112 -0.976589 0
    outer loop
      vertex -0.218053 -2.91192 0
      vertex -0.218053 -2.91192 1
      vertex -0.512089 -2.84715 0
    endloop
  endfacet
  facet normal -0.215112 -0.976589 -0
    outer loop
      vertex -0.512089 -2.84715 1
      vertex -0.512089 -2.84715 0
      vertex -0.218053 -2.91192 1
    endloop
  endfacet
  facet normal -0.661495 -0.74995 0
    outer loop
      vertex 0.0316006 -3.13212 0
      vertex 0.0316006 -3.13212 1
      vertex -0.218053 -2.91192 0
    endloop
  endfacet
  facet normal -0.661495 -0.74995 -0
    outer loop
      vertex -0.218053 -2.91192 1
      vertex -0.218053 -2.91192 0
      vertex 0.0316006 -3.13212 1
    endloop
  endfacet
  facet normal -0.759465 -0.650548 0
    outer loop
      vertex 0.142558 -3.26166 0
      vertex 0.142558 -3.26166 1
      vertex 0.0316006 -3.13212 0
    endloop
  endfacet
  facet normal -0.759465 -0.650548 -0
    outer loop
      vertex 0.0316006 -3.13212 1
      vertex 0.0316006 -3.13212 0
      vertex 0.142558 -3.26166 1
    endloop
  endfacet
  facet normal -0.813911 -0.580989 0
    outer loop
      vertex 0.253515 -3.4171 0
      vertex 0.253515 -3.4171 1
      vertex 0.142558 -3.26166 0
    endloop
  endfacet
  facet normal -0.813911 -0.580989 -0
    outer loop
      vertex 0.142558 -3.26166 1
      vertex 0.142558 -3.26166 0
      vertex 0.253515 -3.4171 1
    endloop
  endfacet
  facet normal -0.872477 -0.488654 0
    outer loop
      vertex 0.347828 -3.58549 0
      vertex 0.347828 -3.58549 1
      vertex 0.253515 -3.4171 0
    endloop
  endfacet
  facet normal -0.872477 -0.488654 -0
    outer loop
      vertex 0.253515 -3.4171 1
      vertex 0.253515 -3.4171 0
      vertex 0.347828 -3.58549 1
    endloop
  endfacet
  facet normal -0.969269 -0.246004 0
    outer loop
      vertex 0.392211 -3.76036 0
      vertex 0.392211 -3.76036 1
      vertex 0.347828 -3.58549 0
    endloop
  endfacet
  facet normal -0.969269 -0.246004 -0
    outer loop
      vertex 0.347828 -3.58549 1
      vertex 0.347828 -3.58549 0
      vertex 0.392211 -3.76036 1
    endloop
  endfacet
  facet normal -0.999243 -0.0389063 0
    outer loop
      vertex 0.403307 -4.04534 0
      vertex 0.403307 -4.04534 1
      vertex 0.392211 -3.76036 0
    endloop
  endfacet
  facet normal -0.999243 -0.0389063 -0
    outer loop
      vertex 0.392211 -3.76036 1
      vertex 0.392211 -3.76036 0
      vertex 0.403307 -4.04534 1
    endloop
  endfacet
  facet normal -0.994316 0.106465 0
    outer loop
      vertex 0.381115 -4.25259 0
      vertex 0.381115 -4.25259 1
      vertex 0.403307 -4.04534 0
    endloop
  endfacet
  facet normal -0.994316 0.106465 0
    outer loop
      vertex 0.403307 -4.04534 1
      vertex 0.403307 -4.04534 0
      vertex 0.381115 -4.25259 1
    endloop
  endfacet
  facet normal -0.936404 0.350924 0
    outer loop
      vertex 0.303445 -4.45984 0
      vertex 0.303445 -4.45984 1
      vertex 0.381115 -4.25259 0
    endloop
  endfacet
  facet normal -0.936404 0.350924 0
    outer loop
      vertex 0.381115 -4.25259 1
      vertex 0.381115 -4.25259 0
      vertex 0.303445 -4.45984 1
    endloop
  endfacet
  facet normal -0.724361 0.689421 0
    outer loop
      vertex 0.13701 -4.63472 0
      vertex 0.13701 -4.63472 1
      vertex 0.303445 -4.45984 0
    endloop
  endfacet
  facet normal -0.724361 0.689421 0
    outer loop
      vertex 0.303445 -4.45984 1
      vertex 0.303445 -4.45984 0
      vertex 0.13701 -4.63472 1
    endloop
  endfacet
  facet normal -0.540296 0.841475 0
    outer loop
      vertex -0.195861 -4.84845 0
      vertex -0.195861 -4.84845 1
      vertex 0.13701 -4.63472 0
    endloop
  endfacet
  facet normal -0.540296 0.841475 0
    outer loop
      vertex 0.13701 -4.63472 1
      vertex 0.13701 -4.63472 0
      vertex -0.195861 -4.84845 1
    endloop
  endfacet
  facet normal -0.287519 0.957775 0
    outer loop
      vertex -0.390036 -4.90674 0
      vertex -0.390036 -4.90674 1
      vertex -0.195861 -4.84845 0
    endloop
  endfacet
  facet normal -0.287519 0.957775 0
    outer loop
      vertex -0.195861 -4.84845 1
      vertex -0.195861 -4.84845 0
      vertex -0.390036 -4.90674 1
    endloop
  endfacet
  facet normal 0.157214 0.987565 -0
    outer loop
      vertex -0.634141 -4.86788 0
      vertex -0.634141 -4.86788 1
      vertex -0.390036 -4.90674 0
    endloop
  endfacet
  facet normal 0.157214 0.987565 0
    outer loop
      vertex -0.390036 -4.90674 1
      vertex -0.390036 -4.90674 0
      vertex -0.634141 -4.86788 1
    endloop
  endfacet
  facet normal 0.521696 -0.853132 0
    outer loop
      vertex -2.79226 -3.90933 0
      vertex -2.90876 -3.98057 1
      vertex -2.90876 -3.98057 0
    endloop
  endfacet
  facet normal 0.521696 -0.853132 0
    outer loop
      vertex -2.79226 -3.90933 0
      vertex -2.79226 -3.90933 1
      vertex -2.90876 -3.98057 1
    endloop
  endfacet
  facet normal 0.995501 -0.0947483 0
    outer loop
      vertex -2.78116 -3.79275 0
      vertex -2.79226 -3.90933 1
      vertex -2.79226 -3.90933 0
    endloop
  endfacet
  facet normal 0.995501 -0.0947483 0
    outer loop
      vertex -2.78116 -3.79275 0
      vertex -2.78116 -3.79275 1
      vertex -2.79226 -3.90933 1
    endloop
  endfacet
  facet normal 0.745577 0.66642 0
    outer loop
      vertex -2.91431 -3.64378 0
      vertex -2.78116 -3.79275 1
      vertex -2.78116 -3.79275 0
    endloop
  endfacet
  facet normal 0.745577 0.66642 -0
    outer loop
      vertex -2.91431 -3.64378 0
      vertex -2.91431 -3.64378 1
      vertex -2.78116 -3.79275 1
    endloop
  endfacet
  facet normal 0.56844 0.822725 0
    outer loop
      vertex -3.18615 -3.45596 0
      vertex -2.91431 -3.64378 1
      vertex -2.91431 -3.64378 0
    endloop
  endfacet
  facet normal 0.56844 0.822725 -0
    outer loop
      vertex -3.18615 -3.45596 0
      vertex -3.18615 -3.45596 1
      vertex -2.91431 -3.64378 1
    endloop
  endfacet
  facet normal 0.459063 0.888404 0
    outer loop
      vertex -3.52457 -3.28109 0
      vertex -3.18615 -3.45596 1
      vertex -3.18615 -3.45596 0
    endloop
  endfacet
  facet normal 0.459063 0.888404 -0
    outer loop
      vertex -3.52457 -3.28109 0
      vertex -3.52457 -3.28109 1
      vertex -3.18615 -3.45596 1
    endloop
  endfacet
  facet normal 0.327885 0.944718 0
    outer loop
      vertex -3.72984 -3.20984 0
      vertex -3.52457 -3.28109 1
      vertex -3.52457 -3.28109 0
    endloop
  endfacet
  facet normal 0.327885 0.944718 -0
    outer loop
      vertex -3.72984 -3.20984 0
      vertex -3.72984 -3.20984 1
      vertex -3.52457 -3.28109 1
    endloop
  endfacet
  facet normal -0.42311 0.906078 0
    outer loop
      vertex -3.81306 -3.2487 0
      vertex -3.72984 -3.20984 1
      vertex -3.72984 -3.20984 0
    endloop
  endfacet
  facet normal -0.42311 0.906078 0
    outer loop
      vertex -3.81306 -3.2487 0
      vertex -3.81306 -3.2487 1
      vertex -3.72984 -3.20984 1
    endloop
  endfacet
  facet normal -0.980287 -0.197577 0
    outer loop
      vertex -3.79087 -3.35881 0
      vertex -3.81306 -3.2487 1
      vertex -3.81306 -3.2487 0
    endloop
  endfacet
  facet normal -0.980287 -0.197577 0
    outer loop
      vertex -3.79087 -3.35881 0
      vertex -3.79087 -3.35881 1
      vertex -3.81306 -3.2487 1
    endloop
  endfacet
  facet normal -0.909576 -0.415537 0
    outer loop
      vertex -3.74649 -3.45596 0
      vertex -3.79087 -3.35881 1
      vertex -3.79087 -3.35881 0
    endloop
  endfacet
  facet normal -0.909576 -0.415537 0
    outer loop
      vertex -3.74649 -3.45596 0
      vertex -3.74649 -3.45596 1
      vertex -3.79087 -3.35881 1
    endloop
  endfacet
  facet normal -0.795621 -0.605795 0
    outer loop
      vertex -3.61334 -3.63083 0
      vertex -3.74649 -3.45596 1
      vertex -3.74649 -3.45596 0
    endloop
  endfacet
  facet normal -0.795621 -0.605795 0
    outer loop
      vertex -3.61334 -3.63083 0
      vertex -3.61334 -3.63083 1
      vertex -3.74649 -3.45596 1
    endloop
  endfacet
  facet normal -0.673509 -0.739179 0
    outer loop
      vertex -3.38588 -3.83808 0
      vertex -3.61334 -3.63083 1
      vertex -3.61334 -3.63083 0
    endloop
  endfacet
  facet normal -0.673509 -0.739179 0
    outer loop
      vertex -3.38588 -3.83808 0
      vertex -3.38588 -3.83808 1
      vertex -3.61334 -3.63083 1
    endloop
  endfacet
  facet normal -0.495293 -0.868726 0
    outer loop
      vertex -3.14732 -3.97409 0
      vertex -3.38588 -3.83808 1
      vertex -3.38588 -3.83808 0
    endloop
  endfacet
  facet normal -0.495293 -0.868726 0
    outer loop
      vertex -3.14732 -3.97409 0
      vertex -3.14732 -3.97409 1
      vertex -3.38588 -3.83808 1
    endloop
  endfacet
  facet normal -0.211308 -0.97742 0
    outer loop
      vertex -2.99753 -4.00648 0
      vertex -3.14732 -3.97409 1
      vertex -3.14732 -3.97409 0
    endloop
  endfacet
  facet normal -0.211308 -0.97742 0
    outer loop
      vertex -2.99753 -4.00648 0
      vertex -2.99753 -4.00648 1
      vertex -3.14732 -3.97409 1
    endloop
  endfacet
  facet normal 0.280167 -0.959951 0
    outer loop
      vertex -2.90876 -3.98057 0
      vertex -2.99753 -4.00648 1
      vertex -2.99753 -4.00648 0
    endloop
  endfacet
  facet normal 0.280167 -0.959951 0
    outer loop
      vertex -2.90876 -3.98057 0
      vertex -2.90876 -3.98057 1
      vertex -2.99753 -4.00648 1
    endloop
  endfacet
  facet normal 0.36265 -0.931925 0
    outer loop
      vertex -2.14316 -3.44301 0
      vertex -2.20973 -3.46891 1
      vertex -2.20973 -3.46891 0
    endloop
  endfacet
  facet normal 0.36265 -0.931925 0
    outer loop
      vertex -2.14316 -3.44301 0
      vertex -2.14316 -3.44301 1
      vertex -2.20973 -3.46891 1
    endloop
  endfacet
  facet normal 0.889408 0.457114 0
    outer loop
      vertex -2.1598 -3.41062 0
      vertex -2.14316 -3.44301 1
      vertex -2.14316 -3.44301 0
    endloop
  endfacet
  facet normal 0.889408 0.457114 -0
    outer loop
      vertex -2.1598 -3.41062 0
      vertex -2.1598 -3.41062 1
      vertex -2.14316 -3.44301 1
    endloop
  endfacet
  facet normal 0.115955 0.993254 0
    outer loop
      vertex -2.27076 -3.39767 0
      vertex -2.1598 -3.41062 1
      vertex -2.1598 -3.41062 0
    endloop
  endfacet
  facet normal 0.115955 0.993254 -0
    outer loop
      vertex -2.27076 -3.39767 0
      vertex -2.27076 -3.39767 1
      vertex -2.1598 -3.41062 1
    endloop
  endfacet
  facet normal -0.303382 0.952869 0
    outer loop
      vertex -2.33178 -3.4171 0
      vertex -2.27076 -3.39767 1
      vertex -2.27076 -3.39767 0
    endloop
  endfacet
  facet normal -0.303382 0.952869 0
    outer loop
      vertex -2.33178 -3.4171 0
      vertex -2.33178 -3.4171 1
      vertex -2.27076 -3.39767 1
    endloop
  endfacet
  facet normal -0.759465 -0.650548 0
    outer loop
      vertex -2.2985 -3.45596 0
      vertex -2.33178 -3.4171 1
      vertex -2.33178 -3.4171 0
    endloop
  endfacet
  facet normal -0.759465 -0.650548 0
    outer loop
      vertex -2.2985 -3.45596 0
      vertex -2.2985 -3.45596 1
      vertex -2.33178 -3.4171 1
    endloop
  endfacet
  facet normal -0.144398 -0.98952 0
    outer loop
      vertex -2.20973 -3.46891 0
      vertex -2.2985 -3.45596 1
      vertex -2.2985 -3.45596 0
    endloop
  endfacet
  facet normal -0.144398 -0.98952 0
    outer loop
      vertex -2.20973 -3.46891 0
      vertex -2.20973 -3.46891 1
      vertex -2.2985 -3.45596 1
    endloop
  endfacet
endsolid OpenSCAD_Model
